<?xml version="1.0" encoding="UTF-8" standalone="no"?><!DOCTYPE svg PUBLIC "-//W3C//DTD SVG 1.1//EN" "http://www.w3.org/Graphics/SVG/1.1/DTD/svg11.dtd"><svg width="100%" height="100%" viewBox="0 0 72 72" version="1.1" xmlns="http://www.w3.org/2000/svg" xmlns:xlink="http://www.w3.org/1999/xlink" xml:space="preserve" style="fill-rule:evenodd;clip-rule:evenodd;stroke-linejoin:round;stroke-miterlimit:1.41421;"><g><circle cx="21.12" cy="58.022" r="2.278" style="fill:#e26549;"/><circle cx="48" cy="58.022" r="2.278" style="fill:#e26549;"/><circle cx="26.88" cy="56.582" r="2.278" style="fill:#e26549;"/><circle cx="42.24" cy="56.582" r="2.278" style="fill:#e26549;"/><path d="M22.158,58.247c-0.185,0.407 -0.591,0.67 -1.038,0.67c-0.447,0 -0.853,-0.263 -1.038,-0.67c-0.601,-1.332 -1.24,-2.747 -1.24,-2.747l4.556,0c0,0 -0.639,1.415 -1.24,2.747Z" style="fill:#494c34;"/><path d="M49.038,58.247c-0.185,0.407 -0.591,0.67 -1.038,0.67c-0.447,0 -0.853,-0.263 -1.038,-0.67c-0.601,-1.332 -1.24,-2.747 -1.24,-2.747l4.556,0c0,0 -0.639,1.415 -1.24,2.747Z" style="fill:#494c34;"/><path d="M27.918,56.807c-0.185,0.407 -0.591,0.67 -1.038,0.67c-0.447,0 -0.853,-0.263 -1.038,-0.67c-0.601,-1.332 -1.24,-2.747 -1.24,-2.747l4.556,0c0,0 -0.639,1.415 -1.24,2.747Z" style="fill:#494c34;"/><path d="M43.278,56.807c-0.185,0.407 -0.591,0.67 -1.038,0.67c-0.447,0 -0.853,-0.263 -1.038,-0.67c-0.601,-1.332 -1.24,-2.747 -1.24,-2.747l4.556,0c0,0 -0.639,1.415 -1.24,2.747Z" style="fill:#494c34;"/></g><g><g><g><clipPath id="_clip1"><path d="M58.56,54c0,1.656 -10.754,3 -24,3c-13.246,0 -24,-1.344 -24,-3l0,-2.64l48,0l0,2.64Z"/></clipPath><g clip-path="url(#_clip1)"><g><rect x="10.88" y="50.12" width="3.12" height="7.567" style="fill:#f0bb40;"/><rect x="17.84" y="50.12" width="4.2" height="7.567" style="fill:#f0bb40;"/><rect x="46.611" y="50.12" width="5.955" height="7.567" style="fill:#f0bb40;"/><rect x="36.08" y="50.12" width="5.064" height="7.567" style="fill:#f0bb40;"/><rect x="26.48" y="50.12" width="4.68" height="7.567" style="fill:#f0bb40;"/><rect x="21.92" y="50.12" width="4.56" height="7.807" style="fill:#616451;"/><rect x="31.04" y="50.12" width="5.04" height="7.807" style="fill:#616451;"/><rect x="41.12" y="50.12" width="5.473" height="7.807" style="fill:#616451;"/><rect x="52.4" y="50.12" width="6.261" height="7.807" style="fill:#616451;"/><rect x="7.76" y="50.12" width="3.12" height="7.807" style="fill:#616451;"/><rect x="14" y="50.12" width="3.84" height="7.807" style="fill:#616451;"/></g></g></g><path d="M58.56,54c0,1.656 -10.754,3 -24,3c-13.246,0 -24,-1.344 -24,-3l0,-2.64l48,0l0,2.64Z" style="fill-opacity:0.101961;"/><g><clipPath id="_clip2"><path d="M34.56,48.36c13.246,0 24,1.344 24,3c0,1.656 -10.754,3 -24,3c-13.246,0 -24,-1.344 -24,-3c0,-1.656 10.754,-3 24,-3Z"/></clipPath><g clip-path="url(#_clip2)"><g><g><path d="M31.598,39.919l-1.242,-2.152l-26.189,15.12l1.243,2.152l26.188,-15.12Z" style="fill:#616451;"/><path d="M34.058,44.179l-1.243,-2.152l-26.188,15.12l1.242,2.152l26.189,-15.12Z" style="fill:#616451;"/><path d="M36.518,48.439l-1.243,-2.152l-26.189,15.12l1.243,2.152l26.189,-15.12Z" style="fill:#616451;"/><path d="M38.977,52.699l-1.242,-2.152l-26.189,15.12l1.243,2.152l26.188,-15.12Z" style="fill:#616451;"/><path d="M61.118,39.919l-1.242,-2.152l-26.189,15.12l1.243,2.152l26.188,-15.12Z" style="fill:#616451;"/><path d="M63.578,44.179l-1.243,-2.152l-26.188,15.12l1.242,2.152l26.189,-15.12Z" style="fill:#616451;"/><path d="M66.038,48.439l-1.243,-2.152l-26.189,15.12l1.243,2.152l26.189,-15.12Z" style="fill:#616451;"/><path d="M68.497,52.699l-1.242,-2.152l-26.189,15.12l1.243,2.152l26.188,-15.12Z" style="fill:#616451;"/><path d="M32.828,42.049l-1.242,-2.152l-26.189,15.12l1.243,2.152l26.188,-15.12Z" style="fill:#f0bb40;"/><path d="M35.288,46.309l-1.243,-2.152l-26.188,15.12l1.242,2.152l26.189,-15.12Z" style="fill:#f0bb40;"/><path d="M37.747,50.569l-1.242,-2.152l-26.189,15.12l1.243,2.152l26.188,-15.12Z" style="fill:#f0bb40;"/><path d="M62.348,42.049l-1.242,-2.152l-26.189,15.12l1.243,2.152l26.188,-15.12Z" style="fill:#f0bb40;"/><path d="M64.808,46.309l-1.243,-2.152l-26.188,15.12l1.242,2.152l26.189,-15.12Z" style="fill:#f0bb40;"/><path d="M67.267,50.569l-1.242,-2.152l-26.189,15.12l1.243,2.152l26.188,-15.12Z" style="fill:#f0bb40;"/></g></g></g></g></g><g><g><clipPath id="_clip3"><path d="M46.68,51.36c0,0.662 -5.431,1.2 -12.12,1.2c-6.689,0 -12.12,-0.538 -12.12,-1.2l0,-31.2l24.24,0l0,31.2Z"/></clipPath><g clip-path="url(#_clip3)"><g><rect x="23.314" y="22.647" width="4.536" height="30.24" style="fill:#f0bb40;"/><rect x="32.292" y="22.647" width="4.536" height="30.24" style="fill:#f0bb40;"/><rect x="41.271" y="22.647" width="4.536" height="30.24" style="fill:#f0bb40;"/><rect x="18.824" y="22.647" width="4.536" height="30.24" style="fill:#616451;"/><rect x="27.803" y="22.647" width="4.536" height="30.24" style="fill:#616451;"/><rect x="36.781" y="22.647" width="4.536" height="30.24" style="fill:#616451;"/><rect x="45.76" y="22.647" width="4.536" height="30.24" style="fill:#616451;"/></g></g></g><path d="M46.68,51.36c0,0.662 -5.431,1.2 -12.12,1.2c-6.689,0 -12.12,-0.538 -12.12,-1.2l0,-4.8l24.24,0l0,4.8Z" style="fill:url(#_Linear4);"/><path d="M46.68,25.389c-3.558,0.261 -7.7,0.411 -12.12,0.411c-4.42,0 -8.562,-0.15 -12.12,-0.411l0,-5.229l24.24,0l0,5.229Z" style="fill-opacity:0.101961;"/></g><g><g><clipPath id="_clip5"><path d="M58.56,20.4c0,1.656 -10.754,3 -24,3c-13.246,0 -24,-1.344 -24,-3l0,-2.64l48,0l0,2.64Z"/></clipPath><g clip-path="url(#_clip5)"><g><rect x="10.88" y="16.52" width="3.12" height="7.567" style="fill:#f0bb40;"/><rect x="17.84" y="16.52" width="4.2" height="7.567" style="fill:#f0bb40;"/><rect x="46.611" y="16.52" width="5.955" height="7.567" style="fill:#f0bb40;"/><rect x="36.08" y="16.52" width="5.064" height="7.567" style="fill:#f0bb40;"/><rect x="26.48" y="16.52" width="4.68" height="7.567" style="fill:#f0bb40;"/><rect x="21.92" y="16.52" width="4.56" height="7.807" style="fill:#616451;"/><rect x="31.04" y="16.52" width="5.04" height="7.807" style="fill:#616451;"/><rect x="41.12" y="16.52" width="5.473" height="7.807" style="fill:#616451;"/><rect x="52.4" y="16.52" width="6.261" height="7.807" style="fill:#616451;"/><rect x="7.76" y="16.52" width="3.12" height="7.807" style="fill:#616451;"/><rect x="14" y="16.52" width="3.84" height="7.807" style="fill:#616451;"/></g></g></g><path d="M58.56,20.4c0,1.656 -10.754,3 -24,3c-13.246,0 -24,-1.344 -24,-3l0,-2.64l48,0l0,2.64Z" style="fill-opacity:0.101961;"/><g><clipPath id="_clip6"><path d="M34.56,14.76c13.246,0 24,1.344 24,3c0,1.656 -10.754,3 -24,3c-13.246,0 -24,-1.344 -24,-3c0,-1.656 10.754,-3 24,-3Z"/></clipPath><g clip-path="url(#_clip6)"><g><g><path d="M31.598,6.319l-1.242,-2.152l-26.189,15.12l1.243,2.152l26.188,-15.12Z" style="fill:#616451;"/><path d="M34.058,10.579l-1.243,-2.152l-26.188,15.12l1.242,2.152l26.189,-15.12Z" style="fill:#616451;"/><path d="M37.715,14.148l-1.243,-2.152l-27.386,15.811l1.243,2.152l27.386,-15.811Z" style="fill:#616451;"/><path d="M38.977,19.099l-1.242,-2.152l-26.189,15.12l1.243,2.152l26.188,-15.12Z" style="fill:#616451;"/><path d="M61.118,6.319l-1.242,-2.152l-26.189,15.12l1.243,2.152l26.188,-15.12Z" style="fill:#616451;"/><path d="M63.578,10.579l-1.243,-2.152l-26.188,15.12l1.242,2.152l26.189,-15.12Z" style="fill:#616451;"/><path d="M66.038,14.839l-1.243,-2.152l-26.189,15.12l1.243,2.152l26.189,-15.12Z" style="fill:#616451;"/><path d="M68.497,19.099l-1.242,-2.152l-26.189,15.12l1.243,2.152l26.188,-15.12Z" style="fill:#616451;"/><path d="M32.828,8.449l-1.242,-2.152l-26.189,15.12l1.243,2.152l26.188,-15.12Z" style="fill:#f0bb40;"/><path d="M35.288,12.709l-1.243,-2.152l-26.188,15.12l1.242,2.152l26.189,-15.12Z" style="fill:#f0bb40;"/><path d="M43.016,13.927l-1.243,-2.152l-31.457,18.162l1.243,2.152l31.457,-18.162Z" style="fill:#f0bb40;"/><path d="M62.348,8.449l-1.242,-2.152l-26.189,15.12l1.243,2.152l26.188,-15.12Z" style="fill:#f0bb40;"/><path d="M64.808,12.709l-1.243,-2.152l-26.188,15.12l1.242,2.152l26.189,-15.12Z" style="fill:#f0bb40;"/><path d="M67.267,16.969l-1.242,-2.152l-26.189,15.12l1.243,2.152l26.188,-15.12Z" style="fill:#f0bb40;"/></g></g></g></g></g></g><g><path d="M10.56,15.11c0.042,-1.651 10.78,-2.99 24,-2.99c13.246,0 24,1.344 24,3l0,2.64c0,1.656 -10.754,3 -24,3c-13.246,0 -24,-1.344 -24,-3l0,-2.64l0,-0.01Z" style="fill:#4893c1;fill-opacity:0.486275;"/><ellipse cx="34.56" cy="15.12" rx="24" ry="3" style="fill:#d1e2e8;fill-opacity:0.364706;"/></g><defs><linearGradient id="_Linear4" x1="0" y1="0" x2="1" y2="0" gradientUnits="userSpaceOnUse" gradientTransform="matrix(3.47813e-16,-5.68022,5.68022,3.47813e-16,33.8232,52.5577)"><stop offset="0" style="stop-color:#000;stop-opacity:0.2"/><stop offset="1" style="stop-color:#000;stop-opacity:0"/></linearGradient></defs></svg>