<?xml version="1.0" encoding="UTF-8" standalone="no"?><!DOCTYPE svg PUBLIC "-//W3C//DTD SVG 1.1//EN" "http://www.w3.org/Graphics/SVG/1.1/DTD/svg11.dtd"><svg width="100%" height="100%" viewBox="0 0 96 24" version="1.1" xmlns="http://www.w3.org/2000/svg" xmlns:xlink="http://www.w3.org/1999/xlink" xml:space="preserve" xmlns:serif="http://www.serif.com/" style="fill-rule:evenodd;clip-rule:evenodd;stroke-linejoin:round;stroke-miterlimit:1.41421;"><g><g><path d="M29.527,12.114l0,1.472l-6.093,0l0,3.76l4.439,0l0,-1.042l-2.559,0l0,-1.574l4.326,0c0,0 0,1.717 0,2.872c-0.019,0.481 -0.981,1.443 -1.518,1.443c-0.996,0 -3.69,0 -4.957,0c-0.698,0 -1.656,-0.958 -1.656,-1.441c0,-1.47 0,-2.901 0,-4.154c0,-0.808 0.527,-1.336 1.214,-1.336c1.139,0 6.804,0 6.804,0Z" style="fill-rule:nonzero;"/><path d="M34.247,17.307l0,1.63l-5.02,0l4.077,-6.905l1.614,0l3.125,5.275l0,-5.275l1.776,0l2.794,4.731l2.786,-4.731l1.758,0l0,6.905l-1.758,0l-0.009,-3.507l-2.038,3.507l-1.495,0l-2.03,-3.516l-0.008,3.516l-2.998,0l-2.769,-4.73l-1.835,3.1l2.03,0Z" style="fill-rule:nonzero;"/><path d="M47.811,12.032l0,6.905l7.083,0l0,-1.63l-5.164,0l0,-1.19l2.99,0l0,-1.511l-2.99,0l0,-1.087l5.164,0l0,-1.487l-7.083,0Z" style="fill-rule:nonzero;"/><path d="M61.972,14.747l1.767,0l0,-1.495c0,0 0.192,-1.228 -1.087,-1.228c0,0 -4.111,0 -5.572,0c-0.548,0 -0.809,0.261 -0.809,0.679c0,0.708 0,3.392 0,4.892c0,0.686 0.657,1.343 1.076,1.343c1.223,0 5.453,0 5.453,0c0,0 0.949,0.129 0.949,-0.935c0,-1.065 0,-2.033 0,-2.033l-1.77,0l0,1.348l-3.942,0l0,-3.664l3.8,0l0,1.093l0.135,0Z" style="fill-rule:nonzero;"/><path d="M64.424,12.024l1.902,0l0,5.3l3.937,0l0,-5.3l1.905,0l0,5.711c0,0 0.121,1.224 -1.629,1.224c-1.749,0 -4.62,0 -4.62,0c0,0 -1.495,0.135 -1.495,-1.224c0,-0.946 0,-5.711 0,-5.711Z" style="fill-rule:nonzero;"/><path id="XMLID_1_" d="M80.321,16.095l0,1.776c0,0.63 -0.462,1.092 -1.904,1.092c-1.279,0 -5.57,0 -5.57,0l0,-6.939c0,0 5.638,0 6.525,0c0.601,0 0.949,0.348 0.949,0.951c0,0.491 0,1.703 0,1.9c0,0.151 -0.205,0.411 -0.677,0.411c0.003,0.032 0,0 0,0.131c0.317,0 0.677,0.36 0.677,0.678Zm-1.767,1.094c0,-0.16 0,-0.586 0,-0.811c0,-0.224 -0.053,-0.277 -0.136,-0.277c-0.17,0 -3.666,0 -3.666,0l0,1.223c0,0 2.635,0 3.533,0c0.196,0 0.269,-0.074 0.269,-0.135Zm0,-2.718c0,-0.16 0,-0.585 0,-0.811c0,-0.224 -0.053,-0.277 -0.136,-0.277c-0.17,0 -3.666,0 -3.666,0l0,1.223c0,0 2.635,0 3.533,0c0.196,0 0.269,-0.074 0.269,-0.135Z" style="fill-rule:nonzero;"/><path d="M80.995,18.962l7.075,0l0,-1.647l-5.309,0l0,-1.206l2.99,0l0,-1.503l-2.99,0l0,-1.087l5.172,0l0,-1.504l-6.938,0l0,6.947Z" style="fill-rule:nonzero;"/><path d="M88.885,17.324l0,0.266l0.413,0l0,1.372l0.397,0l0,-1.361l0.407,0l0,-0.277l-1.217,0Z" style="fill-rule:nonzero;"/><path d="M90.244,18.962l0.402,0l0,-0.819l0.271,0.819l0.273,0l0.271,-0.819l0,0.819l0.414,0l0,-1.638l-0.555,0l-0.261,0.945l-0.272,-0.945l-0.543,0l0,1.638Z" style="fill-rule:nonzero;"/><path d="M22.976,4.957l0,5.156l0.952,0l0,-3.788l2.038,3.788l1.079,0l0,-5.156l-1.087,0l0,3.109l-1.631,-3.109l-1.351,0Z" style="fill-rule:nonzero;"/><path d="M39.282,4.957l0,5.156l0.951,0l0,-3.788l2.039,3.788l1.078,0l0,-5.156l-1.087,0l0,3.109l-1.63,-3.109l-1.351,0Z" style="fill-rule:nonzero;"/><rect x="32.623" y="4.957" width="1.085" height="5.155"/><path d="M47.834,4.957l0,0.816l1.63,0l0,4.34l1.099,0l0,-4.34l1.619,0l0,-0.816l-4.348,0Z" style="fill-rule:nonzero;"/><path d="M57.222,6.857l0,0.139l2.989,0l0,0.815l-2.989,0c0,0 0,0.796 0,1.087c0,0.117 0.286,0.404 0.403,0.404c0.344,0 2.586,0 2.586,0l0,0.822c0,0 -2.197,0 -2.989,0c-0.56,0 -0.955,-0.48 -0.955,-0.954c0,-0.113 0,-2.446 0,-3.264c0,-0.593 0.356,-0.949 0.949,-0.949l2.995,0l0,0.816c0,0 -1.806,0 -2.446,0c-0.26,0 -0.543,0.283 -0.543,0.416" style="fill-rule:nonzero;"/><path d="M65.103,10.124l0.943,0l0,-3.791l2.039,3.791l0.951,0l0,-5.167l-0.943,0l0,3.109l-1.758,-3.109l-1.232,0l0,5.167Z" style="fill-rule:nonzero;"/><path id="XMLID_5_" d="M78.022,5.909l0,3.269c0,0.247 -0.699,0.946 -1.104,0.946c-0.815,0 -2.981,0 -2.981,0l0,-5.167c0,0 2.114,0 2.709,0c0.843,0 1.376,0.533 1.376,0.952Zm-0.963,2.992c0,-0.353 0,-1.961 0,-2.712c0,-0.096 -0.32,-0.416 -0.545,-0.416c-0.411,0 -1.626,0 -1.626,0l0,3.669c0,0 1.162,0 1.631,0c0.167,0 0.54,-0.374 0.54,-0.541Z" style="fill-rule:nonzero;"/><path id="XMLID_4_" d="M86.849,6.18c0,0.378 0,1.963 0,2.71c0,0.782 -0.587,1.367 -1.486,1.367c-0.005,0 -0.007,0 -0.011,0c-0.774,0 -0.552,0 -1.356,0l-0.011,0c-0.87,0 -1.446,-0.545 -1.486,-1.285c-0.001,-0.027 -0.001,-0.055 -0.001,-0.082c0,-0.516 0,-2.198 0,-2.709c0,-0.094 0,-0.148 0,-0.148c0,-0.52 0.56,-1.079 1.219,-1.079c0.488,0 1.903,0 1.903,0c0.797,-0.001 1.229,0.43 1.229,1.226Zm-1.094,2.587c0,-0.128 0,-2.221 0,-2.451c0,-0.199 -0.348,-0.547 -0.543,-0.547c-0.196,0 -1.079,0 -1.079,0c-0.28,0 -0.552,0.272 -0.552,0.526c0,0.165 0,2.212 0,2.471c0,0.388 0.148,0.536 0.412,0.536c0.242,0 0.905,0 1.227,0c0.263,0 0.535,-0.272 0.535,-0.535Z" style="fill-rule:nonzero;"/><path id="_x33_D_PART" d="M16.401,12.052l0,3.247l-5.756,3.319l-5.711,-3.319l-0.257,0.175l5.968,3.499l6.016,-3.478l0,-3.593l-0.26,0.15Z" style="fill:url(#_Linear1);fill-rule:nonzero;"/><path id="black_line_thing" d="M16.401,15.285l0.26,0.188l0,0.022l-0.017,0.012l-0.266,-0.195l0.023,-0.013l0,-0.014Z" style="fill:#7a7eae;fill-rule:nonzero;"/><path d="M10.694,12.014l-4.055,-2.374l-0.064,0.064l4.07,2.415l0.049,-0.105Z" style="fill:#639;fill-rule:nonzero;"/><path d="M10.681,12.014l0.03,0l0.005,0.034l-0.053,0l0.018,-0.034Z" style="fill:#639;fill-rule:nonzero;"/><path id="top_black_line" d="M10.694,12.119l0,-0.105l8.633,-4.99l0.026,0.071l-8.659,5.024Z" style="fill:#120f22;fill-rule:nonzero;"/><path id="LOGO_DARK_LINES" d="M10.694,22l0.058,-2.978l5.992,-3.454l0.022,-3.697l-0.105,0l0,3.624l-6.016,3.478l-0.021,3.027l0.07,0Z" style="fill:url(#_Linear2);fill-rule:nonzero;"/><path id="LOGO" d="M10.694,16.684l0,-4.565l8.659,-5.024l0,9.909l-8.659,4.996l0,-3.004l6.014,-3.463l0,-3.659l-2.014,1.165l0,1.292l-4,2.353Z" style="fill:url(#_Linear3);fill-rule:nonzero;"/><path id="BOTTOM_LAIN_LEFT_LIGHT_LINE" d="M10.597,22l0.048,0l0,-3.027l-0.17,-0.1l0.122,3.127" style="fill:url(#_Linear4);fill-rule:nonzero;"/><path id="underneath" d="M4.663,8.553l0.037,0.031l0.015,6.864l-0.038,0.026l-0.023,-0.015l0.009,-6.906" style="fill:#2d2868;fill-rule:nonzero;"/><path id="LEFT_3D_PURPLE_SHADOW" d="M4.934,15.299l-0.257,0.175l0,-6.913l6.017,-3.474l0,0.342l-5.754,3.331l-0.006,6.539Z" style="fill:#453d76;fill-rule:nonzero;"/><path id="MAIN_DARK_PURPLE_LINE" d="M10.694,11.997l0,4.687l-0.049,0.033l0,-4.598l0,-0.133l0.049,0.011Z" style="fill:#453d76;fill-rule:nonzero;"/><path d="M6.575,9.704l0,4.66l4.07,2.353l0,-4.598l-4.07,-2.415Z" style="fill:url(#_Linear5);fill-rule:nonzero;"/><path d="M10.597,21.951l0,-3.006l-5.92,-3.471l0,-6.879l-2.677,-1.571l0,9.997l8.597,4.979l0,-0.049Z" style="fill:url(#_Linear6);fill-rule:nonzero;"/><rect x="4.631" y="8.561" width="0.046" height="6.912" style="fill:#2d2868;"/><path d="M4.677,8.561l-2.642,-1.572l-0.035,0.035l2.654,1.56l0.023,-0.023Z" style="fill:#2d2868;fill-rule:nonzero;"/><path id="BOTTOM_PURPLE_LINE" d="M10.597,18.945l0,0.056l-5.966,-3.475l0,-0.052l0.046,0l5.92,3.471Z" style="fill:url(#_Linear7);fill-rule:nonzero;"/><path id="top_middle_light_line" d="M10.694,5.087l3.847,2.249l0,0.336l-3.847,-2.243l0,-0.342Z" style="fill:url(#_Linear8);fill-rule:nonzero;"/><path id="top_right" d="M14.541,7.336l0,0.336l2.665,-1.563l0,-0.318l-2.665,1.545Z" style="fill:#484592;fill-rule:nonzero;"/><path d="M10.667,2l6.539,3.791l-2.665,1.545l-3.847,-2.249l-6.017,3.474l-2.642,-1.572l8.632,-4.989Z" style="fill:url(#_Linear9);fill-rule:nonzero;"/><path d="M6.639,9.64l4.003,-2.261l3.814,2.152l4.646,-2.67l0.225,0.163l-8.633,4.99l-4.055,-2.374Z" style="fill:url(#_Linear10);fill-rule:nonzero;"/></g></g><defs><linearGradient id="_Linear1" x1="0" y1="0" x2="1" y2="0" gradientUnits="userSpaceOnUse" gradientTransform="matrix(12.9327,-2.15138,2.15138,12.9327,5.92985,-2.22506)"><stop offset="0" style="stop-color:#fff;stop-opacity:1"/><stop offset="0.04" style="stop-color:#fff;stop-opacity:1"/><stop offset="0.9" style="stop-color:#898cbf;stop-opacity:1"/><stop offset="1" style="stop-color:#898cbf;stop-opacity:1"/></linearGradient><linearGradient id="_Linear2" x1="0" y1="0" x2="1" y2="0" gradientUnits="userSpaceOnUse" gradientTransform="matrix(6.14271,0,0,6.14271,10.6236,-2.01166)"><stop offset="0" style="stop-color:#140f2d;stop-opacity:1"/><stop offset="1" style="stop-color:#3b3c75;stop-opacity:1"/></linearGradient><linearGradient id="_Linear3" x1="0" y1="0" x2="1" y2="0" gradientUnits="userSpaceOnUse" gradientTransform="matrix(7.18745,4.71829,-4.71829,7.18745,12.3164,-6.17651)"><stop offset="0" style="stop-color:#4c5284;stop-opacity:1"/><stop offset="1" style="stop-color:#8789bc;stop-opacity:1"/></linearGradient><linearGradient id="_Linear4" x1="0" y1="0" x2="1" y2="0" gradientUnits="userSpaceOnUse" gradientTransform="matrix(-0.05007,-3.20429,3.20429,-0.05007,10.6065,2.94728)"><stop offset="0" style="stop-color:#4c407e;stop-opacity:1"/><stop offset="0.11" style="stop-color:#4c407e;stop-opacity:1"/><stop offset="0.89" style="stop-color:#669;stop-opacity:1"/><stop offset="1" style="stop-color:#a7b3d9;stop-opacity:1"/><stop offset="1" style="stop-color:#9ba5cd;stop-opacity:1"/></linearGradient><linearGradient id="_Linear5" x1="0" y1="0" x2="1" y2="0" gradientUnits="userSpaceOnUse" gradientTransform="matrix(9.85275,-2.73823,2.73823,9.85275,2.77608,-4.11504)"><stop offset="0" style="stop-color:#669;stop-opacity:1"/><stop offset="0.23" style="stop-color:#669;stop-opacity:1"/><stop offset="0.72" style="stop-color:#a7b3d9;stop-opacity:1"/><stop offset="1" style="stop-color:#a7b3d9;stop-opacity:1"/></linearGradient><linearGradient id="_Linear6" x1="0" y1="0" x2="1" y2="0" gradientUnits="userSpaceOnUse" gradientTransform="matrix(9.85242,-2.73814,2.73814,9.85242,2.94622,-3.5033)"><stop offset="0" style="stop-color:#669;stop-opacity:1"/><stop offset="0.23" style="stop-color:#669;stop-opacity:1"/><stop offset="0.99" style="stop-color:#a7b3d9;stop-opacity:1"/><stop offset="1" style="stop-color:#a7b3d9;stop-opacity:1"/></linearGradient><linearGradient id="_Linear7" x1="0" y1="0" x2="1" y2="0" gradientUnits="userSpaceOnUse" gradientTransform="matrix(3.91766,2.09634,-2.09634,3.91766,5.15244,-3.03911)"><stop offset="0" style="stop-color:#6e70a9;stop-opacity:1"/><stop offset="0.97" style="stop-color:#514a8e;stop-opacity:1"/><stop offset="1" style="stop-color:#514a8e;stop-opacity:1"/></linearGradient><linearGradient id="_Linear8" x1="0" y1="0" x2="1" y2="0" gradientUnits="userSpaceOnUse" gradientTransform="matrix(2.48747,1.21013,-1.21013,2.48747,10.972,-13.3683)"><stop offset="0" style="stop-color:#9ea5d3;stop-opacity:1"/><stop offset="0.04" style="stop-color:#9ea5d3;stop-opacity:1"/><stop offset="0.9" style="stop-color:#7675ae;stop-opacity:1"/><stop offset="1" style="stop-color:#7675ae;stop-opacity:1"/></linearGradient><linearGradient id="_Linear9" x1="0" y1="0" x2="1" y2="0" gradientUnits="userSpaceOnUse" gradientTransform="matrix(8.7969e-16,14.3664,-14.3664,8.7969e-16,10.6689,-4.2537)"><stop offset="0" style="stop-color:#aaacd2;stop-opacity:1"/><stop offset="0.3" style="stop-color:#aaacd2;stop-opacity:1"/><stop offset="1" style="stop-color:#fcfafb;stop-opacity:1"/></linearGradient><linearGradient id="_Linear10" x1="0" y1="0" x2="1" y2="0" gradientUnits="userSpaceOnUse" gradientTransform="matrix(8.7969e-16,14.3664,-14.3664,8.7969e-16,10.6689,-4.2537)"><stop offset="0" style="stop-color:#aaacd2;stop-opacity:1"/><stop offset="0.3" style="stop-color:#aaacd2;stop-opacity:1"/><stop offset="1" style="stop-color:#fcfafb;stop-opacity:1"/></linearGradient></defs></svg>