<?xml version="1.0" encoding="UTF-8" standalone="no"?><!DOCTYPE svg PUBLIC "-//W3C//DTD SVG 1.1//EN" "http://www.w3.org/Graphics/SVG/1.1/DTD/svg11.dtd"><svg width="100%" height="100%" viewBox="0 0 96 24" version="1.1" xmlns="http://www.w3.org/2000/svg" xmlns:xlink="http://www.w3.org/1999/xlink" xml:space="preserve" xmlns:serif="http://www.serif.com/" style="fill-rule:evenodd;clip-rule:evenodd;stroke-linejoin:round;stroke-miterlimit:1.41421;"><g><g><path id="path37" d="M55.969,3l-11.059,0c-3.411,0 -5.082,2.108 -5.082,4.844l0,8.314c0,1.699 -0.802,2.918 -2.495,2.918l-9.673,0c-0.068,0 -0.124,0.056 -0.124,0.12l0,1.678c0,0.068 0.056,0.126 0.124,0.126l10.949,0c3.409,0 5.085,-2.098 5.085,-4.836l0,-8.32c0,-1.699 0.796,-2.921 2.498,-2.921l9.778,0c0.076,0 0.137,-0.055 0.137,-0.123l0,-1.675c0,-0.066 -0.061,-0.125 -0.138,-0.125Z" style="fill-rule:nonzero;"/><path id="path39" d="M23.415,3l-21.281,0c-0.078,0 -0.134,0.059 -0.134,0.125l0,1.675c0,0.068 0.056,0.126 0.134,0.126l20.001,0c1.691,0 2.494,1.219 2.494,2.918c0,1.693 -0.803,2.91 -2.494,2.91l-15.823,0c-2.457,0 -4.312,2.064 -4.312,4.802l0,5.314c0,0.072 0.056,0.13 0.134,0.13l3.605,0c0.071,0 0.13,-0.058 0.13,-0.13l0,-5.314c0,-1.689 0.97,-2.881 2.378,-2.881l15.168,0c3.404,0 5.073,-2.091 5.073,-4.829c0,-2.734 -1.669,-4.846 -5.073,-4.846Z" style="fill-rule:nonzero;"/><path d="M91.951,21l-0.391,-1.182l0,1.182l-0.197,0l0,-1.455l0.271,0l0.422,1.243l0.408,-1.243l0.271,0l0,1.455l-0.197,0l0,-1.182l-0.392,1.182l-0.195,0Z" style="fill-rule:nonzero;"/><path d="M90.519,19.712l-0.466,0l0,-0.167l1.129,0l0,0.167l-0.466,0l0,1.288l-0.197,0l0,-1.288Z" style="fill-rule:nonzero;"/><path id="path41" d="M84.725,11.775c-0.048,-0.053 -0.048,-0.145 0,-0.197c1.06,-0.878 1.585,-2.201 1.585,-3.732c0,-2.734 -1.666,-4.846 -5.08,-4.846l-21.276,0c-0.073,0 -0.126,0.059 -0.126,0.13l0,1.67c0,0.068 0.053,0.126 0.126,0.126l19.998,0c1.686,0 2.5,1.219 2.5,2.918c0,1.693 -0.808,2.91 -2.5,2.91l-0.025,0l-19.973,0.004c-0.073,0 -0.126,0.052 -0.126,0.128l0,1.669c0,0.067 0.053,0.12 0.126,0.12l19.998,0c2.205,0.026 2.496,2.174 2.496,3.272l0.004,0.207c0,1.702 -0.814,2.927 -2.5,2.927l-19.998,0c-0.073,0 -0.126,0.052 -0.126,0.12l0,1.673c0,0.068 0.053,0.126 0.126,0.126l21.276,0c3.417,0 5.08,-2.268 5.08,-4.846l0,-0.207c0,-1.643 -0.525,-3.213 -1.585,-4.172Z" style="fill-rule:nonzero;"/></g></g></svg>