<?xml version="1.0" encoding="UTF-8" standalone="no"?><!DOCTYPE svg PUBLIC "-//W3C//DTD SVG 1.1//EN" "http://www.w3.org/Graphics/SVG/1.1/DTD/svg11.dtd"><svg width="100%" height="100%" viewBox="0 0 96 24" version="1.1" xmlns="http://www.w3.org/2000/svg" xmlns:xlink="http://www.w3.org/1999/xlink" xml:space="preserve" xmlns:serif="http://www.serif.com/" style="fill-rule:evenodd;clip-rule:evenodd;stroke-linejoin:round;stroke-miterlimit:1.41421;"><g><g><path d="M91.885,17.958l0,0.266l0.413,0l0,1.372l0.397,0l0,-1.361l0.407,0l0,-0.277l-1.217,0Z" style="fill:#294296;fill-rule:nonzero;"/><path d="M93.244,19.596l0.402,0l0,-0.819l0.271,0.819l0.273,0l0.271,-0.819l0,0.819l0.414,0l0,-1.638l-0.555,0l-0.261,0.945l-0.272,-0.945l-0.543,0l0,1.638Z" style="fill:#294296;fill-rule:nonzero;"/><path d="M19.427,12.166l1.33,-2.969l0.584,2.969l-1.914,0m18.827,-7.763l-3.609,8.396l-1.598,-8.396l-3.107,0l-4.421,12.37l-2.069,-12.37l-3.877,0l-5.873,13.336l0.876,-5.573l-5.833,0l-0.462,2.872l2.45,0l-0.284,1.533c-1.396,0.576 -3.764,0.357 -4.778,-1.46c-0.641,-1.152 -1.241,-3.716 1.46,-6.076c2.206,-1.923 6.019,-2.272 8.217,-1.266c0,0 0.276,-1.614 0.487,-3.107c-4.226,-1.46 -7.512,-0.243 -9.71,1.12c-3.009,1.841 -4.453,4.672 -4.056,8.517c0.446,4.454 6.214,7.269 11.105,4.429c0.057,-0.024 0.081,-0.048 0.13,-0.056l-0.47,1.038l3.285,0l2.069,-4.583l3.634,0l0.795,4.583l5.354,0l2.725,-8.558l2.239,8.558l2.093,0l3.594,-9.475l1.419,9.532l3.139,0l-1.143,-15.364l-3.781,0Z" style="fill:#294296;fill-rule:nonzero;"/><path d="M43.178,19.775l8.769,0l0.528,-3.277l-5.484,0l0.43,-2.734l4.778,0l0.519,-3.285l-4.818,0l0.413,-2.718l5.492,0l0.519,-3.285l-8.704,0l-2.442,15.299" style="fill:#294296;fill-rule:nonzero;"/><path d="M86.602,9.286l-1.963,-4.989l-3.602,0l3.715,8.072l-1.152,7.227l3.156,0l0.957,-6.392l5.67,-8.907l-3.683,0l-3.098,4.989" style="fill:#294296;fill-rule:nonzero;"/><path d="M79.187,13.537c-0.843,2.531 -2.887,4.007 -4.55,3.253c-1.655,-0.738 -2.329,-3.407 -1.477,-5.954c0.852,-2.556 2.888,-4 4.543,-3.261c1.663,0.746 2.336,3.415 1.484,5.962m-1.225,-8.996c-3.488,-0.803 -7.114,1.971 -8.095,6.197c-0.966,4.235 1.062,8.315 4.542,9.126c3.489,0.795 7.106,-1.979 8.096,-6.206c0.965,-4.234 -1.071,-8.314 -4.543,-9.117Z" style="fill:#294296;fill-rule:nonzero;"/><path d="M63.685,10.657c-1.727,0 -2.174,0 -2.174,0l0.479,-2.839c0,0 0.065,0 2.044,0c2.223,0 1.769,2.839 -0.349,2.839m-0.381,6.181c-1.736,0 -2.774,0 -2.774,0l0.487,-3.05c0,0 0.657,0 2.628,0c2.506,0 2.433,3.05 -0.341,3.05Zm1.842,-12.257c-1.696,-0.024 -5.89,0 -5.89,0l0.033,0l-2.434,15.194c0,0 5.038,0 7.082,0c2.92,0 7.179,-4.291 3.293,-7.796c3.975,-4.129 0.033,-7.349 -2.084,-7.398Z" style="fill:#294296;fill-rule:nonzero;"/></g></g></svg>