<?xml version="1.0" encoding="UTF-8" standalone="no"?><!DOCTYPE svg PUBLIC "-//W3C//DTD SVG 1.1//EN" "http://www.w3.org/Graphics/SVG/1.1/DTD/svg11.dtd"><svg width="100%" height="100%" viewBox="0 0 96 24" version="1.1" xmlns="http://www.w3.org/2000/svg" xmlns:xlink="http://www.w3.org/1999/xlink" xml:space="preserve" xmlns:serif="http://www.serif.com/" style="fill-rule:evenodd;clip-rule:evenodd;stroke-linejoin:round;stroke-miterlimit:1.41421;"><g><g><path id="path452" d="M13.681,47c-7.001,-0.003 -11.681,-4.963 -11.681,-10.982c0,-6.016 4.69,-11.037 11.672,-11.018l65.966,0c6.979,-0.019 11.669,5.002 11.669,11.018c0,6.019 -4.679,10.979 -11.68,10.982l-65.946,0Zm65.922,-19.296l-65.901,0c-5.545,0.01 -8.945,3.718 -8.945,8.3c0,4.584 3.383,8.317 8.945,8.298l65.901,0c5.567,0.019 8.947,-3.714 8.947,-8.298c0,-4.582 -3.402,-8.29 -8.947,-8.3Z" style="fill:#ed1c24;fill-rule:nonzero;"/></g><path id="path3348" d="M75.656,6.965l-1.184,0l0,-3.148l1.184,0c0.848,0 1.563,0.692 1.563,1.563c0,0.871 -0.715,1.585 -1.563,1.585m-0.067,-4.286l-2.233,0l0,5.425l2.233,0c1.54,0 2.791,-1.228 2.791,-2.724c0,-1.496 -1.251,-2.701 -2.791,-2.701m-66.02,17.303l-2.746,0c-0.894,0 -1.72,-0.357 -2.345,-0.983c-0.625,-0.625 -0.982,-1.451 -0.982,-2.344l0,-9.198c0,-0.894 0.357,-1.72 0.982,-2.345c0.625,-0.625 1.451,-0.96 2.345,-0.96l2.746,0l0,15.83Zm1.384,-17.348l-4.13,0c-2.657,0 -4.823,2.166 -4.823,4.823l0,9.198c0,2.679 2.166,4.823 4.823,4.823l4.13,0c0.067,0 0.156,-0.067 0.156,-0.134l0,-18.576c0,-0.067 -0.067,-0.134 -0.156,-0.134m57.804,5.47l0,-5.425l-1.094,0l0,3.55l-2.657,-3.55l-1.094,0l0,5.425l1.094,0l0,-3.639l2.679,3.639l1.072,0Zm-13.106,4.934l3.282,0l0,8.06l2.188,0l0,-8.06l3.215,0l0,-2.165l-8.685,0l0,2.165Zm15.785,-0.223c1.161,0 2.233,0.603 2.813,1.585l1.652,-1.451c-1.004,-1.518 -2.701,-2.411 -4.532,-2.411c-2.992,0 -5.448,2.433 -5.448,5.447c0,3.014 2.456,5.47 5.448,5.47c1.831,0 3.528,-0.893 4.532,-2.411l-1.652,-1.451c-0.58,0.96 -1.652,1.585 -2.813,1.585c-1.786,0 -3.237,-1.429 -3.237,-3.193c0,-1.741 1.451,-3.17 3.237,-3.17m19,6.966l-0.335,0.96l-0.335,-0.96l-0.357,0l0,1.295l0.246,0l0,-1.005l0.334,1.005l0.224,0l0.357,-1.005l0,1.005l0.223,0l0,-1.295l-0.357,0Zm-2.322,0.268l0.424,0l0,1.049l0.268,0l0,-1.049l0.402,0l0,-0.268l-1.094,0l0,0.268Zm-2.969,-5.158l-4.778,0l0,-4.018l-2.121,0l0,10.225l2.121,0l0,-4.086l4.778,0l0,4.086l2.121,0l0,-10.225l-2.121,0l0,4.018Zm-0.38,-7.814c-0.915,0 -1.675,-0.759 -1.675,-1.697c0,-0.938 0.76,-1.674 1.675,-1.674c0.938,0 1.697,0.736 1.697,1.674c0,0.938 -0.759,1.697 -1.697,1.697m0,-4.577c-1.585,0 -2.88,1.295 -2.88,2.88c0,1.608 1.295,2.903 2.88,2.903c1.608,0 2.902,-1.295 2.902,-2.903c0,-1.585 -1.294,-2.88 -2.902,-2.88m-25.363,4.599l-3.104,0l0,-1.272l2.881,0l0,-0.983l-2.881,0l0,-1.183l3.104,0l0,-0.982l-4.22,0l0,5.425l4.22,-0.022l0,-0.983Zm-54.477,1.184c0,0.982 0.804,1.786 1.786,1.786c0.982,0 1.786,-0.804 1.786,-1.786c0,-0.983 -0.804,-1.787 -1.786,-1.787c-0.982,0 -1.786,0.827 -1.786,1.787m23.041,6.608l-0.067,0c-1.25,-0.223 -2.322,-0.424 -2.411,-1.138c-0.023,-0.134 -0.023,-0.358 0.178,-0.581c0.335,-0.402 1.117,-0.603 2.3,-0.603c1.317,0 2.657,0.514 3.126,0.715l0.736,-1.764c-0.513,-0.223 -2.165,-0.804 -3.974,-0.804c-2.21,0 -4.554,1.094 -4.554,3.081c0,1.63 1.138,2.456 4.085,2.947c2.054,0.358 3.193,0.559 3.171,1.452c-0.023,0.491 -0.402,1.317 -2.724,1.317c-1.875,0 -3.215,-0.692 -3.662,-0.96l-0.96,1.741c0.514,0.268 2.233,1.094 4.466,1.094c3.259,0 4.979,-1.138 4.979,-3.282c0,-1.518 -0.782,-2.523 -4.689,-3.215m-3.215,-10.426l2.701,3.639l1.072,0l0,-5.425l-1.094,0l0,3.55l-2.679,-3.55l-1.094,0l0,5.425l1.094,0l0,-3.639Zm9.065,-1.786l-1.206,0l0,5.425l1.206,0l0,-5.425Zm-17.103,8.417c1.05,0 1.898,0.848 1.898,1.898c0,1.049 -0.848,1.92 -1.898,1.92c-1.049,0 -1.92,-0.849 -1.92,-1.92c0.023,-1.027 0.871,-1.898 1.92,-1.898m-3.594,10.404l2.902,0c2.679,0 4.823,-2.166 4.823,-4.823l0,-9.22c0,-2.68 -2.166,-4.823 -4.823,-4.823l-2.902,0c-0.067,0 -0.134,0.045 -0.134,0.112l0,18.62c0,0.067 0.067,0.134 0.134,0.134m31.034,-3.215l-2.166,-7.412l-1.831,0l-2.143,7.39l-1.965,-7.39l-2.232,0l2.902,10.225l2.456,0l1.898,-6.743l1.897,6.743l2.479,0l2.902,-10.225l-2.232,0l-1.965,7.412Zm7.077,-15.606l-4.599,0l0,1.138l1.742,0l0,4.287l1.16,0l0,-4.287l1.697,0l0,-1.138Zm-12.235,1.786l2.702,3.639l1.072,0l0,-5.425l-1.094,0l0,3.55l-2.68,-3.55l-1.094,0l0,5.425l1.094,0l0,-3.639Zm11.9,16.633l2.278,0l0,-10.225l-2.278,0l0,10.225Z" style="fill:#e60012;fill-rule:nonzero;"/></g></svg>