<?xml version="1.0" encoding="UTF-8" standalone="no"?><!DOCTYPE svg PUBLIC "-//W3C//DTD SVG 1.1//EN" "http://www.w3.org/Graphics/SVG/1.1/DTD/svg11.dtd"><svg width="100%" height="100%" viewBox="0 0 96 24" version="1.1" xmlns="http://www.w3.org/2000/svg" xmlns:xlink="http://www.w3.org/1999/xlink" xml:space="preserve" xmlns:serif="http://www.serif.com/" style="fill-rule:evenodd;clip-rule:evenodd;stroke-linejoin:round;stroke-miterlimit:1.41421;"><g><g><path id="path452" d="M13.681,23c-7.001,-0.003 -11.681,-4.963 -11.681,-10.982c0,-6.016 4.69,-11.037 11.672,-11.018l65.966,0c6.979,-0.019 11.669,5.002 11.669,11.018c0,6.019 -4.679,10.979 -11.68,10.982l-65.946,0Zm65.922,-19.296l-65.901,0c-5.545,0.01 -8.945,3.718 -8.945,8.3c0,4.584 3.383,8.317 8.945,8.298l65.901,0c5.567,0.019 8.947,-3.714 8.947,-8.298c0,-4.582 -3.402,-8.29 -8.947,-8.3Z" style="fill:#ed1c24;fill-rule:nonzero;"/><path id="path456" d="M10.858,6.802l3.229,0l4.465,7.223l-0.002,-7.223l3.201,0l0,10.358l-3.198,0l-4.486,-7.223l0,7.223l-3.209,0l0,-10.358l0,0Z" style="fill:#ed1c24;fill-rule:nonzero;"/><path id="path458" d="M39.158,7.868l3.118,0l0,1.394l1.686,0l0,1.024l-1.686,0l0.003,6.874l-3.121,0l0.001,-6.874l-1.692,0l0,-1.021l1.692,-0.003l-0.001,-1.394l0,0Z" style="fill:#ed1c24;fill-rule:nonzero;"/><rect id="path460" x="23.534" y="10.272" width="3.115" height="6.89" style="fill:#ed1c24;fill-rule:nonzero;"/><rect id="path462" x="23.526" y="6.799" width="3.123" height="2.119" style="fill:#ed1c24;fill-rule:nonzero;"/><path id="path464" d="M78.114,9.804c-2.514,0 -4.552,1.729 -4.552,3.865c0,2.135 2.038,3.867 4.552,3.867c2.515,0 4.55,-1.732 4.55,-3.867c0,-2.136 -2.035,-3.865 -4.55,-3.865m1.251,3.856c0,0 -0.003,1.04 -0.003,1.459c0,1.097 -0.647,1.55 -1.273,1.55c-0.625,0 -1.277,-0.453 -1.277,-1.55c0,-0.419 0.001,-1.486 0.001,-1.486c0,0 0.002,-1.017 0.002,-1.434c0,-1.094 0.655,-1.543 1.274,-1.543c0.621,0 1.273,0.449 1.273,1.543c0,0.417 -0.001,1.19 0.004,1.464l0,-0.003l-0.001,0Z" style="fill:#ed1c24;fill-rule:nonzero;"/><path id="path466" d="M69.495,13.682l0,-1.232c0,-1.066 -0.735,-1.336 -1.219,-1.336c-0.497,0 -1.221,0.27 -1.221,1.336l0,2.452c0,1.067 0.724,1.341 1.221,1.341c0.484,0 1.219,-0.274 1.219,-1.341l0,-1.22Zm-0.02,-6.88l3.072,0l0,10.357l-3.078,0c0,0 -0.002,-0.335 -0.002,-0.397c-1.191,0.746 -2.536,0.746 -3.586,0.26c-0.281,-0.133 -2.129,-1.02 -2.129,-3.418c0,-1.817 1.713,-3.803 3.959,-3.605c0.739,0.065 1.264,0.335 1.764,0.617l0,-3.814l0,0Z" style="fill:#ed1c24;fill-rule:nonzero;"/><path id="path468" d="M33.94,9.955c1.165,-0.033 3.525,0.728 3.51,3.454c-0.004,0.487 -0.002,3.75 -0.002,3.75l-3.093,0l0,-4.524c0,-0.601 -0.574,-1.267 -1.424,-1.267c-0.849,0 -1.478,0.666 -1.478,1.267c0,0.294 0.003,4.524 0.003,4.524l-3.091,0l-0.003,-6.887l3.094,-0.003c0,0 -0.003,0.553 0,0.725c0.596,-0.568 1.456,-1.011 2.484,-1.039" style="fill:#ed1c24;fill-rule:nonzero;"/><path id="path470" d="M59.25,9.955c1.164,-0.033 3.527,0.728 3.511,3.454c-0.003,0.487 0,3.75 0,3.75l-3.096,0l0,-4.524c0,-0.601 -0.574,-1.267 -1.424,-1.267c-0.849,0 -1.477,0.666 -1.477,1.267c0,0.294 0.004,4.524 0.004,4.524l-3.092,0l0,-6.887l3.092,-0.003c0,0 -0.004,0.553 0,0.725c0.594,-0.568 1.452,-1.011 2.482,-1.039" style="fill:#ed1c24;fill-rule:nonzero;"/><path id="path472" d="M49.451,14.749c0,0 0.002,0.032 0.002,0.419c0,1.259 -0.828,1.54 -1.288,1.54c-0.459,0 -1.304,-0.281 -1.304,-1.54c0,-0.377 0.003,-1.421 0.003,-1.421c0,0 5.867,0.003 5.867,-0.003c0,-2.135 -2.062,-3.903 -4.595,-3.903c-2.533,0 -4.585,1.728 -4.585,3.866c0,2.138 2.052,3.866 4.585,3.866c2.102,0 3.878,-1.199 4.419,-2.827l-3.104,0.003l0,0Zm-2.587,-2.077c-0.006,-0.603 0.007,-1.006 0.205,-1.35c0.243,-0.425 0.69,-0.627 1.096,-0.63c0.404,0.003 0.852,0.205 1.093,0.63c0.198,0.344 0.209,0.747 0.204,1.35l-2.598,0Z" style="fill:#ed1c24;fill-rule:nonzero;"/><path id="path474" d="M83.307,7.939c0.303,0 0.574,-0.019 0.574,-0.384c0,-0.292 -0.265,-0.344 -0.514,-0.344l-0.485,0l0,0.728l0.425,0Zm-0.425,1.326l-0.357,0l0,-2.357l0.894,0c0.559,0 0.835,0.205 0.835,0.671c0,0.422 -0.265,0.604 -0.611,0.649l0.669,1.037l-0.399,0l-0.624,-1.023l-0.407,0l0,1.023l0,0Z" style="fill:#ed1c24;fill-rule:nonzero;"/><path id="path476" d="M83.311,9.791c0.927,0 1.656,-0.724 1.656,-1.709c0,-0.969 -0.729,-1.697 -1.656,-1.697c-0.934,0 -1.665,0.728 -1.665,1.697c0,0.985 0.731,1.709 1.665,1.709m-2.074,-1.709c0,-1.174 0.95,-2.038 2.074,-2.038c1.115,0 2.067,0.864 2.067,2.038c0,1.183 -0.952,2.05 -2.067,2.05c-1.124,0 -2.074,-0.867 -2.074,-2.05" style="fill:#ed1c24;fill-rule:nonzero;"/></g></g></svg>