<?xml version="1.0" encoding="UTF-8" standalone="no"?><!DOCTYPE svg PUBLIC "-//W3C//DTD SVG 1.1//EN" "http://www.w3.org/Graphics/SVG/1.1/DTD/svg11.dtd"><svg width="100%" height="100%" viewBox="0 0 96 24" version="1.1" xmlns="http://www.w3.org/2000/svg" xmlns:xlink="http://www.w3.org/1999/xlink" xml:space="preserve" xmlns:serif="http://www.serif.com/" style="fill-rule:evenodd;clip-rule:evenodd;stroke-linejoin:round;stroke-miterlimit:1.41421;"><g><g><g><path d="M51.221,20.906c0,0.103 -0.103,0.205 -0.205,0.205l-3.73,0c-0.103,0 -0.206,-0.102 -0.206,-0.205l0,-2.704c0,-0.102 0.103,-0.205 0.206,-0.205l3.73,0c0.102,0 0.205,0.103 0.205,0.205l0,2.704Zm-0.171,-3.73l-3.799,0c-0.547,0 -0.992,0.445 -0.992,0.993l0,2.703c0,0.548 0.445,0.993 0.992,0.993l3.799,0c0.548,0 0.993,-0.445 0.993,-0.993l0,-2.703c0,-0.548 -0.445,-0.993 -0.993,-0.993" style="fill:#a09d9e;fill-rule:nonzero;"/><path d="M7.315,13.138l0,3.49l-0.89,0l0,-4.722l0.753,0l3.559,3.456l0,-3.456l0.855,0l0,4.722l-0.684,0l-3.593,-3.49Z" style="fill:#231f20;fill-rule:nonzero;"/><path d="M16.11,13.138l0,3.49l-0.89,0l0,-4.722l0.753,0l3.559,3.456l0,-3.456l0.855,0l0,4.722l-0.684,0l-3.593,-3.49Z" style="fill:#231f20;fill-rule:nonzero;"/><path d="M34.281,13.138l0,3.49l-0.889,0l0,-4.722l0.753,0l3.559,3.456l0,-3.456l0.855,0l0,4.722l-0.684,0l-3.594,-3.49Z" style="fill:#231f20;fill-rule:nonzero;"/><path d="M13.68,11.906l0.171,0l0,4.722l-0.89,0l0,-4.722l0.719,0Z" style="fill:#231f20;fill-rule:nonzero;"/><path d="M26.342,11.906l0.171,0l0,0.821l-2.122,0l0,3.901l-0.924,0l0,-3.901l-2.121,0l0,-0.821l4.962,0l0.034,0Z" style="fill:#231f20;fill-rule:nonzero;"/><path d="M31.92,11.906l0.171,0l0,0.821l-3.73,0l0,1.061l2.909,0l0,0.821l-2.909,0l0,1.232l3.73,0l0,0.822l-4.62,0l0,-4.723l4.449,0l0,-0.034Z" style="fill:#231f20;fill-rule:nonzero;"/><path d="M43.419,15.807l-2.67,0l0,-3.08l2.704,0c0.855,0 1.129,0.821 1.129,1.54c0,0.719 -0.308,1.54 -1.129,1.54m1.437,-3.217c-0.342,-0.445 -0.855,-0.684 -1.471,-0.684l-3.491,0l0,4.722l3.491,0c0.616,0 1.129,-0.239 1.471,-0.684c0.308,-0.411 0.479,-0.992 0.479,-1.677c0,-0.684 -0.171,-1.266 -0.479,-1.677" style="fill:#231f20;fill-rule:nonzero;"/><path d="M51.221,15.636c0,0.103 -0.103,0.205 -0.205,0.205l-3.73,0c-0.103,0 -0.206,-0.102 -0.206,-0.205l0,-2.703c0,-0.103 0.103,-0.206 0.206,-0.206l3.73,0c0.102,0 0.205,0.103 0.205,0.206l0,2.703Zm-0.171,-3.73l-3.799,0c-0.547,0 -0.992,0.445 -0.992,0.992l0,2.738c0,0.548 0.445,0.992 0.992,0.992l3.799,0c0.548,0 0.993,-0.444 0.993,-0.992l0,-2.738c0,-0.547 -0.445,-0.992 -0.993,-0.992" style="fill:#231f20;fill-rule:nonzero;"/><path d="M79.454,19.948c0.89,0.342 2.806,0.65 4.312,0.65c1.643,0 2.327,-0.547 2.327,-1.266c0,-0.616 -0.616,-0.993 -2.429,-1.677c-2.43,-0.89 -4.176,-1.608 -4.176,-3.182c0,-1.643 2.122,-2.601 5.373,-2.601c1.745,0 2.327,0.102 3.457,0.308l0,1.574c-1.096,-0.206 -2.054,-0.548 -3.56,-0.548c-1.608,0 -2.292,0.514 -2.292,1.027c0,0.753 1.061,1.129 2.909,1.779c2.566,0.924 4.003,1.643 4.003,3.183c0,1.609 -1.779,2.738 -5.851,2.738c-1.643,0 -2.807,-0.103 -4.073,-0.308l0,-1.677Z" style="fill:#231f20;fill-rule:nonzero;"/><path d="M70.864,13.24l-1.916,0l0,7.29l1.916,0c2.943,0 4.826,-1.266 4.826,-3.628c0,-2.361 -1.848,-3.662 -4.826,-3.662m5.168,7.974c-0.958,0.445 -2.738,0.719 -4.312,0.719l-6.023,0l0,-10.027l6.023,0c1.574,0 3.388,0.274 4.346,0.718c2.327,1.061 3.08,2.704 3.08,4.312c0,1.575 -0.753,3.252 -3.08,4.312" style="fill:#231f20;fill-rule:nonzero;"/><path d="M61.453,16.423c0,0 2.807,-0.445 2.807,-2.19c0,-1.711 -2.978,-2.396 -6.16,-2.396c-2.875,0 -4.757,0.343 -4.757,0.343l0,1.54c1.3,-0.308 2.532,-0.582 4.243,-0.582c1.814,0 3.217,0.547 3.217,1.3c0,0.924 -1.369,1.472 -4.346,1.472l-1.369,0l0,1.403l1.266,0c3.115,0 4.894,0.479 4.894,1.608c0,1.027 -1.574,1.643 -3.559,1.643c-1.711,0 -3.285,-0.376 -4.586,-0.719l0,1.677c0.617,0.103 2.259,0.445 5.271,0.445c3.353,0 6.297,-1.095 6.297,-2.977c0,-1.609 -2.02,-2.533 -3.217,-2.533" style="fill:#cf181f;fill-rule:nonzero;"/><path d="M90.2,20.53l-0.308,0l0,-0.171l0.821,0l0,0.171l-0.308,0l0,0.958l-0.205,0l0,-0.958Z" style="fill:#231f20;fill-rule:nonzero;"/><path d="M91.774,21.043c0,-0.137 0,-0.308 0,-0.479c-0.034,0.137 -0.068,0.274 -0.137,0.411l-0.171,0.479l-0.171,0l-0.137,-0.479c-0.034,-0.137 -0.069,-0.308 -0.103,-0.445c0,0.137 0,0.308 -0.034,0.479l-0.034,0.445l-0.205,0l0.068,-1.095l0.274,0l0.137,0.445c0.034,0.136 0.068,0.273 0.102,0.376c0.035,-0.137 0.069,-0.274 0.103,-0.376l0.137,-0.445l0.274,0l0.068,1.095l-0.205,0l-0.034,-0.445l0.068,0.034Z" style="fill:#231f20;fill-rule:nonzero;"/></g><g><g><path d="M25.759,9.043c-0.163,0.141 -0.32,0.289 -0.491,0.419c-0.397,0.302 -0.854,0.422 -1.348,0.419c-0.335,-0.002 -0.665,-0.032 -0.979,-0.159c-0.783,-0.316 -1.255,-0.903 -1.442,-1.713c-0.066,-0.284 -0.089,-0.584 -0.091,-0.877c-0.009,-1.262 -0.003,-2.525 -0.002,-3.788c0,-0.331 0.006,-0.281 0.284,-0.282c0.48,-0.004 0.96,-0.004 1.44,-0.009c0.081,-0.001 0.12,0.032 0.126,0.11c0,0.008 0.001,0.015 0.001,0.023c-0.001,0.824 -0.001,1.649 -0.001,2.473c0,0.544 -0.01,1.088 0.002,1.632c0.009,0.385 0.242,0.709 0.572,0.79c0.316,0.077 0.686,0.02 0.875,-0.346c0.088,-0.171 0.145,-0.348 0.146,-0.542c0.002,-0.461 0.008,-0.922 0.006,-1.384c-0.003,-0.854 -0.011,-1.708 -0.015,-2.562c-0.002,-0.182 0.019,-0.2 0.201,-0.2c0.492,0 0.983,0 1.475,0c0.164,0 0.188,0.026 0.187,0.193c0,0.745 0,1.49 -0.002,2.235c-0.002,0.533 -0.007,1.065 -0.011,1.598c-0.002,0.237 0.03,0.466 0.151,0.677c0.115,0.201 0.28,0.319 0.513,0.345c0.414,0.045 0.72,-0.133 0.859,-0.525c0.046,-0.133 0.077,-0.278 0.081,-0.418c0.013,-0.442 0.013,-0.884 0.012,-1.327c-0.003,-0.846 -0.011,-1.693 -0.016,-2.539c-0.001,-0.232 0.007,-0.238 0.233,-0.238c0.484,-0.002 0.968,-0.003 1.452,-0.004c0.174,0 0.191,0.023 0.187,0.198c-0.006,0.212 -0.003,0.424 -0.004,0.635c-0.007,1.172 -0.021,2.343 -0.017,3.515c0.002,0.495 -0.12,0.953 -0.367,1.371c-0.227,0.382 -0.545,0.677 -0.951,0.881c-0.656,0.33 -1.324,0.319 -2.003,0.105c-0.402,-0.126 -0.737,-0.362 -1.019,-0.674c-0.017,-0.02 -0.034,-0.041 -0.052,-0.06c-0.005,-0.005 -0.013,-0.007 -0.02,-0.01c0.009,0.013 0.019,0.026 0.028,0.038Z" style="fill-rule:nonzero;"/><path d="M17.968,7.123c-0.583,0 -1.165,0 -1.747,0c-0.172,-0.001 -0.207,-0.035 -0.207,-0.206c0,-0.321 0.001,-0.643 0.003,-0.964c0.001,-0.155 0.031,-0.185 0.189,-0.185c0.775,0.003 1.55,0.006 2.325,0.01c0.182,0.001 0.203,-0.021 0.14,-0.194c-0.193,-0.536 -0.582,-0.866 -1.124,-1.007c-0.582,-0.151 -1.137,-0.082 -1.621,0.3c-0.336,0.265 -0.527,0.625 -0.621,1.041c-0.128,0.563 -0.035,1.091 0.266,1.578c0.318,0.516 0.803,0.744 1.398,0.768c0.368,0.014 0.718,-0.059 1.034,-0.246c0.188,-0.11 0.374,-0.153 0.59,-0.147c0.472,0.014 0.945,0.004 1.418,0.005c0.284,0 0.301,0.029 0.164,0.277c-0.37,0.667 -0.901,1.153 -1.606,1.458c-0.682,0.295 -1.388,0.328 -2.112,0.243c-0.618,-0.072 -1.168,-0.309 -1.652,-0.691c-0.324,-0.255 -0.571,-0.58 -0.763,-0.946c-0.286,-0.545 -0.424,-1.127 -0.458,-1.74c-0.025,-0.431 0.001,-0.852 0.134,-1.265c0.232,-0.729 0.687,-1.285 1.312,-1.711c0.699,-0.478 1.477,-0.665 2.313,-0.609c0.822,0.056 1.538,0.378 2.139,0.937c0.629,0.584 0.964,1.318 1.026,2.171c0.014,0.191 0.001,0.387 -0.024,0.577c-0.04,0.312 -0.231,0.499 -0.551,0.527c-0.15,0.012 -0.306,0.007 -0.457,0.008c-0.503,0.002 -1.006,0.011 -1.508,0.011c0,0.003 0,-0.004 0,0Z" style="fill-rule:nonzero;"/><path d="M12.757,7.569c0,0.67 0,1.339 0,2.008c0,0.129 -0.022,0.152 -0.154,0.152c-0.484,0 -0.968,-0.001 -1.452,-0.003c-0.162,-0.001 -0.174,-0.017 -0.174,-0.176c0.001,-1.18 0.002,-2.36 0,-3.54c-0.002,-0.671 -0.505,-1.238 -1.171,-1.321c-0.536,-0.066 -1.009,0.055 -1.361,0.493c-0.19,0.236 -0.29,0.513 -0.291,0.818c-0.001,1.161 0,2.321 0.001,3.482c0,0.246 0.001,0.246 -0.243,0.246c-0.454,0 -0.908,0 -1.361,0c-0.168,0 -0.191,-0.021 -0.19,-0.187c0.003,-0.991 0.008,-1.982 0.01,-2.972c0.001,-0.303 -0.014,-0.606 -0.001,-0.907c0.025,-0.563 0.219,-1.069 0.551,-1.524c0.35,-0.481 0.811,-0.814 1.363,-1.029c0.466,-0.182 0.95,-0.256 1.445,-0.23c0.505,0.027 0.989,0.14 1.444,0.382c0.725,0.384 1.215,0.958 1.467,1.735c0.084,0.26 0.121,0.528 0.118,0.804c-0.007,0.59 -0.002,1.18 -0.002,1.769c0,0 0.001,0 0.001,0Z" style="fill-rule:nonzero;"/></g><g><g><path d="M4.385,6.93c-0.027,-0.325 -0.033,-0.65 -0.002,-0.975c0.015,-0.148 -0.008,-0.174 -0.161,-0.194c-0.511,-0.065 -1.022,-0.131 -1.532,-0.197c-0.132,-0.017 -0.264,-0.035 -0.395,-0.05c-0.038,-0.005 -0.076,-0.005 -0.113,-0.004c-0.088,0.002 -0.133,0.043 -0.139,0.13c-0.007,0.11 -0.007,0.222 -0.021,0.332c-0.037,0.309 -0.018,0.618 -0.008,0.927c0.003,0.114 0.017,0.228 0.029,0.342c0.004,0.042 0.017,0.084 0.028,0.125c0.009,0.037 0.069,0.062 0.134,0.054c0.117,-0.014 0.234,-0.03 0.351,-0.046c0.309,-0.04 0.617,-0.08 0.926,-0.119c0.257,-0.033 0.514,-0.065 0.771,-0.098c0.024,-0.003 0.048,-0.011 0.071,-0.019c0.04,-0.016 0.063,-0.044 0.061,-0.089c-0.001,-0.039 0,-0.079 0,-0.119Z" style="fill:#a4c70f;fill-rule:nonzero;"/><path d="M4.821,4.354c0.139,-0.295 0.296,-0.58 0.486,-0.845c0.086,-0.122 0.079,-0.156 -0.044,-0.249c-0.409,-0.312 -0.818,-0.625 -1.228,-0.937c-0.105,-0.081 -0.21,-0.162 -0.317,-0.241c-0.03,-0.023 -0.063,-0.042 -0.096,-0.06c-0.077,-0.043 -0.136,-0.029 -0.185,0.043c-0.061,0.092 -0.117,0.189 -0.184,0.278c-0.187,0.248 -0.324,0.526 -0.471,0.798c-0.054,0.1 -0.099,0.206 -0.146,0.311c-0.017,0.039 -0.027,0.081 -0.038,0.122c-0.01,0.037 0.029,0.088 0.089,0.114c0.109,0.047 0.218,0.091 0.327,0.136c0.288,0.12 0.575,0.239 0.862,0.359c0.239,0.1 0.478,0.201 0.717,0.301c0.022,0.01 0.047,0.015 0.071,0.019c0.042,0.006 0.076,-0.006 0.097,-0.046c0.019,-0.035 0.04,-0.069 0.06,-0.103Z" style="fill:#e6001e;fill-rule:nonzero;"/><path d="M5.29,9.414c-0.186,-0.268 -0.354,-0.547 -0.489,-0.844c-0.062,-0.135 -0.095,-0.146 -0.237,-0.087c-0.475,0.199 -0.951,0.397 -1.426,0.595c-0.122,0.051 -0.245,0.102 -0.367,0.154c-0.035,0.015 -0.068,0.034 -0.1,0.054c-0.075,0.045 -0.093,0.104 -0.055,0.181c0.049,0.1 0.105,0.197 0.148,0.299c0.122,0.286 0.294,0.544 0.456,0.806c0.06,0.098 0.129,0.19 0.197,0.282c0.025,0.035 0.056,0.064 0.086,0.095c0.027,0.027 0.091,0.019 0.144,-0.02c0.094,-0.071 0.187,-0.144 0.281,-0.216c0.247,-0.189 0.494,-0.378 0.742,-0.567c0.206,-0.157 0.413,-0.313 0.619,-0.47c0.019,-0.014 0.036,-0.033 0.051,-0.052c0.027,-0.033 0.033,-0.069 0.01,-0.107c-0.022,-0.034 -0.041,-0.069 -0.06,-0.103Z" style="fill:#009beb;fill-rule:nonzero;"/></g><g><path d="M32.712,6.901c0.026,-0.325 0.032,-0.65 0.001,-0.975c-0.014,-0.148 0.009,-0.174 0.157,-0.194c0.496,-0.065 0.992,-0.131 1.488,-0.197c0.128,-0.017 0.256,-0.035 0.384,-0.05c0.036,-0.005 0.073,-0.005 0.11,-0.004c0.085,0.002 0.129,0.043 0.134,0.13c0.008,0.111 0.008,0.222 0.021,0.332c0.036,0.309 0.017,0.618 0.008,0.927c-0.003,0.114 -0.016,0.228 -0.028,0.342c-0.005,0.042 -0.017,0.084 -0.027,0.125c-0.01,0.037 -0.068,0.062 -0.131,0.054c-0.114,-0.014 -0.227,-0.03 -0.341,-0.046c-0.3,-0.04 -0.6,-0.08 -0.9,-0.119c-0.249,-0.033 -0.499,-0.065 -0.748,-0.098c-0.024,-0.003 -0.047,-0.01 -0.069,-0.019c-0.039,-0.016 -0.061,-0.044 -0.06,-0.089c0.002,-0.039 0.001,-0.079 0.001,-0.119Z" style="fill:#f9a81d;fill-rule:nonzero;"/><path d="M32.644,6.899c0.027,-0.325 0.033,-0.65 0.001,-0.975c-0.014,-0.148 0.009,-0.174 0.162,-0.194c0.511,-0.065 1.021,-0.131 1.532,-0.197c0.131,-0.017 0.263,-0.035 0.395,-0.05c0.037,-0.005 0.075,-0.005 0.113,-0.004c0.088,0.002 0.132,0.043 0.138,0.13c0.008,0.111 0.008,0.222 0.021,0.332c0.038,0.309 0.018,0.618 0.009,0.927c-0.004,0.114 -0.017,0.228 -0.029,0.342c-0.005,0.042 -0.017,0.084 -0.028,0.125c-0.01,0.037 -0.07,0.062 -0.134,0.054c-0.118,-0.014 -0.234,-0.03 -0.351,-0.046c-0.309,-0.04 -0.618,-0.08 -0.927,-0.119c-0.256,-0.033 -0.513,-0.065 -0.77,-0.098c-0.024,-0.003 -0.048,-0.011 -0.071,-0.019c-0.04,-0.016 -0.063,-0.044 -0.061,-0.089c0.001,-0.039 0,-0.079 0,-0.119Z" style="fill:#f5aa00;fill-rule:nonzero;"/><path d="M32.208,4.323c-0.139,-0.295 -0.296,-0.58 -0.485,-0.846c-0.087,-0.121 -0.08,-0.155 0.043,-0.248c0.409,-0.312 0.818,-0.625 1.228,-0.937c0.105,-0.081 0.21,-0.162 0.316,-0.241c0.031,-0.023 0.063,-0.042 0.096,-0.06c0.078,-0.043 0.137,-0.029 0.185,0.043c0.062,0.092 0.118,0.189 0.185,0.278c0.186,0.248 0.324,0.526 0.47,0.798c0.054,0.1 0.1,0.206 0.146,0.311c0.017,0.039 0.027,0.081 0.038,0.122c0.01,0.037 -0.029,0.088 -0.089,0.114c-0.108,0.047 -0.218,0.091 -0.327,0.136c-0.287,0.12 -0.574,0.239 -0.862,0.359c-0.238,0.1 -0.477,0.201 -0.716,0.301c-0.022,0.01 -0.047,0.015 -0.071,0.019c-0.042,0.006 -0.076,-0.006 -0.097,-0.046c-0.019,-0.035 -0.04,-0.069 -0.06,-0.103Z" style="fill:#009582;fill-rule:nonzero;"/><path d="M31.74,9.383c0.185,-0.268 0.353,-0.547 0.488,-0.844c0.062,-0.135 0.095,-0.146 0.237,-0.087c0.475,0.199 0.95,0.397 1.425,0.595c0.123,0.051 0.246,0.102 0.368,0.154c0.034,0.015 0.067,0.034 0.099,0.054c0.076,0.045 0.093,0.104 0.055,0.181c-0.049,0.1 -0.104,0.197 -0.148,0.299c-0.122,0.286 -0.293,0.544 -0.456,0.806c-0.06,0.098 -0.128,0.19 -0.196,0.282c-0.025,0.035 -0.057,0.065 -0.087,0.095c-0.027,0.027 -0.091,0.019 -0.143,-0.02c-0.094,-0.071 -0.187,-0.144 -0.281,-0.216c-0.247,-0.189 -0.494,-0.378 -0.742,-0.567c-0.206,-0.157 -0.413,-0.313 -0.619,-0.47c-0.019,-0.014 -0.036,-0.033 -0.051,-0.052c-0.027,-0.033 -0.033,-0.069 -0.009,-0.107c0.021,-0.034 0.04,-0.069 0.06,-0.103Z" style="fill:#e62c8b;fill-rule:nonzero;"/></g></g></g></g></g></svg>