<?xml version="1.0" encoding="UTF-8" standalone="no"?><!DOCTYPE svg PUBLIC "-//W3C//DTD SVG 1.1//EN" "http://www.w3.org/Graphics/SVG/1.1/DTD/svg11.dtd"><svg width="100%" height="100%" viewBox="0 0 96 24" version="1.1" xmlns="http://www.w3.org/2000/svg" xmlns:xlink="http://www.w3.org/1999/xlink" xml:space="preserve" xmlns:serif="http://www.serif.com/" style="fill-rule:evenodd;clip-rule:evenodd;stroke-linejoin:round;stroke-miterlimit:1.41421;"><g><path id="path4258" d="M34.338,20c-3.278,-0.008 -6.318,-0.995 -8.35,-2.818c-1.541,-1.384 -2.281,-3.262 -2.281,-5.196c0,-1.911 0.772,-3.802 2.281,-5.178c1.895,-1.727 5.239,-2.808 8.388,-2.808c3.485,0 6.274,0.878 8.406,2.812c1.517,1.377 2.251,3.261 2.251,5.174c0,1.855 -0.778,3.83 -2.251,5.196c-1.985,1.842 -5.105,2.818 -8.406,2.818l-0.019,0l-0.019,0Zm-24.024,-15.992c3.107,0.004 5.642,1.018 6.538,1.489c0.357,0.196 0.546,-0.042 0.546,-0.224l0,-0.567l2.003,0l0,4.874l-1.794,0c-0.194,-0.902 -0.729,-1.548 -1.11,-1.859c-0.338,-0.276 -0.764,-0.509 -1.128,-0.671c-1.069,-0.478 -2.75,-0.932 -4.735,-0.925c-1.679,0 -3.29,0.311 -4.087,0.81c-0.503,0.315 -0.757,0.704 -0.757,1.163c0,0.645 0.556,0.91 0.828,0.994c0.9,0.279 3.151,0.465 4.449,0.601c1.238,0.129 3.827,0.476 4.971,0.757c0.59,0.144 1.311,0.402 1.768,0.617c0.524,0.247 1.027,0.566 1.439,0.978c0.302,0.302 1.162,1.296 1.162,2.898c0,1.668 -0.988,2.588 -1.438,2.946c-0.832,0.663 -1.855,1.089 -2.684,1.327c-0.879,0.251 -2.151,0.636 -4.519,0.636c-1.452,0 -2.204,-0.175 -3.372,-0.419c-1.424,-0.297 -2.785,-0.839 -3.249,-1.05c-0.373,-0.168 -0.481,0.186 -0.481,0.272l0,0.756l-2.221,0l0,-5.598l1.999,0c0,0.664 0.316,1.335 0.516,1.579c0.806,0.984 1.669,1.372 2.493,1.665c0.714,0.255 2.674,0.746 4.304,0.746c2.207,0 3.435,-0.564 3.613,-0.634c0.178,-0.072 1.202,-0.404 1.202,-1.489c0,-1.091 -0.972,-1.291 -1.55,-1.438c-0.729,-0.185 -2.516,-0.367 -4.333,-0.558c-1.83,-0.192 -3.667,-0.48 -4.527,-0.668c-1.923,-0.421 -2.659,-1.137 -3.116,-1.558c0.03,0.028 -1.045,-0.962 -1.044,-2.653c0,-1.877 1.284,-3.009 2.853,-3.709c1.7,-0.759 3.7,-1.088 5.461,-1.088l0,0l0.001,0l-0.001,0Zm45.262,15.109l-8.205,0l0,-1.775l1.918,0c0.716,0 0.688,-0.683 0.688,-1.18l0,-8.32c0,-0.537 -0.075,-1.17 -1.2,-1.17l-1.556,0l0,-1.779l6.988,0l9.771,8.818l-0.101,-5.937c-0.009,-0.778 -0.153,-1.103 -0.995,-1.103l-1.837,0l0,-1.776l8.354,0l0,1.776l-1.792,0c-0.858,0 -0.913,0.274 -0.923,1.103l0.151,11.344l-2.861,0l-11.254,-10.044l0.003,7.128c0.01,0.775 0.046,1.14 0.844,1.14l2.007,0l0,1.775Zm25.347,-12.448l-1.181,0c-0.273,0 -0.455,0.259 -0.221,0.547c0,0 3.296,3.943 3.327,3.984c0.031,0.042 0.057,0.052 0.099,0.014c0.041,-0.04 3.379,-3.962 3.405,-3.993c0.159,-0.19 0.051,-0.55 -0.291,-0.55l-1.211,0l0,-1.777l8.029,0l0,1.777l-1.794,0c-0.651,0 -0.915,0.12 -1.405,0.674c-0.224,0.253 -5.269,6.012 -5.406,6.168c-0.072,0.081 -0.066,0.195 -0.066,0.262l0,2.807c0,0.057 0.013,0.323 0.038,0.383c0.061,0.144 0.193,0.282 0.385,0.342c0.068,0.02 0.412,0.031 0.49,0.031l1.835,0l0,1.776l-9.747,0l0,-1.777l1.739,0.002l0,0l0,0l0,0c0.079,0 0.427,-0.01 0.494,-0.031c0.193,-0.06 0.324,-0.198 0.385,-0.341c0.025,-0.06 0.038,-0.327 0.038,-0.385l0.002,-2.806c0,-0.068 -0.005,-0.097 -0.12,-0.247c-0.126,-0.165 -5.118,-5.822 -5.346,-6.071c-0.284,-0.309 -0.782,-0.787 -1.539,-0.787l-1.736,0l0,-1.777l9.797,0l0,1.775Zm-46.536,11.221c1.743,-0.003 3.36,-0.606 4.489,-1.73c1.125,-1.119 1.648,-2.494 1.648,-4.174c0,-1.61 -0.565,-3.115 -1.648,-4.183c-1.116,-1.1 -2.776,-1.719 -4.5,-1.719c-1.729,0 -3.389,0.613 -4.507,1.719c-1.077,1.067 -1.644,2.577 -1.644,4.183c0,1.601 0.573,3.109 1.644,4.174c1.118,1.113 2.773,1.73 4.507,1.73l0,0l0.011,0Z" style="fill-rule:nonzero;"/></g></svg>