<?xml version="1.0" encoding="UTF-8" standalone="no"?><!DOCTYPE svg PUBLIC "-//W3C//DTD SVG 1.1//EN" "http://www.w3.org/Graphics/SVG/1.1/DTD/svg11.dtd"><svg width="100%" height="100%" viewBox="0 0 120 24" version="1.1" xmlns="http://www.w3.org/2000/svg" xmlns:xlink="http://www.w3.org/1999/xlink" xml:space="preserve" xmlns:serif="http://www.serif.com/" style="fill-rule:evenodd;clip-rule:evenodd;stroke-linejoin:round;stroke-miterlimit:1.41421;"><g><g><path d="M13.661,18.789c-0.165,-0.028 -0.331,-0.046 -0.487,-0.092c-1.027,-0.321 -2.045,-0.651 -3.1,-0.981l0,-6.459c0,-0.789 0.009,-1.578 0.009,-2.376l0,-6.881c0.578,0.138 1.11,0.248 1.642,0.385c1.505,0.413 3.009,0.798 4.44,1.441c1.175,0.532 2.156,1.284 2.551,2.578c0.358,1.174 0.403,2.367 0.11,3.559c-0.037,0.165 -0.101,0.331 -0.174,0.487c-0.514,1.1 -1.505,1.568 -2.734,1.256c-0.294,-0.073 -0.578,-0.192 -0.881,-0.302c0,-0.615 0,-1.202 0,-1.78c0,-1.119 0.009,-2.248 -0.009,-3.367c0,-0.303 -0.028,-0.624 -0.129,-0.908c-0.064,-0.193 -0.247,-0.386 -0.431,-0.496c-0.33,-0.202 -0.624,-0.064 -0.752,0.312c-0.046,0.147 -0.074,0.312 -0.083,0.468c-0.009,2.514 -0.009,5.018 -0.009,7.532c0,0.046 0.009,0.092 0.018,0.138c0,0.706 0,1.413 0.01,2.11c0,0.431 -0.01,0.862 -0.01,1.293c0,0.028 0,0.065 0,0.092c0.01,0.679 0.019,1.34 0.019,1.991Z" style="fill:#da032b;fill-rule:nonzero;"/><path d="M33.624,12.908c0,-0.449 0,-0.862 0,-1.302c0.422,0 0.835,0 1.239,0c0.733,0 1.146,-0.267 1.357,-0.964c0.312,-1.018 0.321,-2.055 0,-3.073c-0.211,-0.716 -0.587,-0.973 -1.33,-0.973c-0.734,0 -1.459,0 -2.229,0c0,3.633 0,7.239 0,10.854c-0.725,0 -1.404,0 -2.12,0c0,-4.037 0,-8.092 0,-12.175c0.129,0 0.257,0 0.377,0c1.513,0 3.027,0.028 4.541,-0.009c1.615,-0.037 2.56,0.899 2.917,2.193c0.358,1.293 0.367,2.587 -0.238,3.807c-0.532,1.073 -1.404,1.651 -2.633,1.642c-0.615,0 -1.23,0 -1.881,0Z" style="fill:#252122;fill-rule:nonzero;"/><path d="M52.404,8.193c0.77,0 1.504,0 2.257,0c0.679,1.99 1.358,3.981 2.036,5.972c0.028,0.009 0.055,0.009 0.092,0.018c0.771,-1.99 1.541,-3.99 2.321,-5.981c0.679,0 1.34,0 2.046,0c-1.835,4.615 -3.67,9.211 -5.504,13.798c-0.633,0 -1.239,0 -1.881,0c0.238,-0.633 0.477,-1.248 0.706,-1.862c0.312,-0.799 0.615,-1.597 0.936,-2.386c0.092,-0.22 0.101,-0.422 0.018,-0.66c-0.981,-2.844 -1.945,-5.688 -2.917,-8.532c-0.028,-0.12 -0.064,-0.23 -0.11,-0.367Z" style="fill:#252122;fill-rule:nonzero;"/><path d="M80.459,17.459c-0.78,0 -1.551,0.036 -2.312,-0.009c-0.945,-0.056 -1.771,-0.872 -1.991,-1.9c-0.055,-0.266 -0.082,-0.541 -0.082,-0.816c-0.01,-0.872 -0.046,-1.743 0.018,-2.615c0.046,-0.633 0.156,-1.275 0.358,-1.871c0.403,-1.184 1.302,-1.872 2.523,-1.973c1.523,-0.119 3.064,-0.092 4.633,-0.128c0,3.137 0,6.211 0,9.303c-0.698,0 -1.404,0 -2.138,0c0,-2.643 0,-5.276 0,-7.89c-0.725,0 -1.422,-0.037 -2.11,0.018c-0.413,0.028 -0.67,0.358 -0.826,0.743c-0.247,0.624 -0.293,1.294 -0.312,1.954c-0.018,0.89 -0.009,1.789 0,2.679c0,0.193 0.028,0.385 0.065,0.578c0.1,0.431 0.357,0.633 0.807,0.633c0.449,0 0.89,0 1.367,0c0,0.422 0,0.844 0,1.294Z" style="fill:#252122;fill-rule:nonzero;"/><path d="M51.202,17.459c-0.697,0 -1.385,0 -2.101,0c0,-2.633 0,-5.266 0,-7.954c-0.238,0 -0.459,0 -0.67,0c-0.422,0.009 -0.844,0.009 -1.266,0.027c-0.523,0.018 -0.862,0.321 -1.018,0.789c-0.128,0.385 -0.248,0.798 -0.266,1.193c-0.037,1.247 -0.046,2.495 -0.018,3.743c0.018,0.679 0.302,0.908 0.972,0.908c0.385,0 0.78,0 1.165,0c0.019,0 0.046,0 0.119,0.009l0,1.276c-0.1,0.009 -0.183,0.027 -0.275,0.027c-0.55,0 -1.101,-0.018 -1.651,0.009c-1.358,0.074 -2.34,-0.908 -2.45,-2.137c-0.101,-1.101 -0.082,-2.221 -0.046,-3.321c0.019,-0.56 0.138,-1.138 0.312,-1.67c0.404,-1.285 1.358,-1.982 2.661,-2.083c1.495,-0.11 2.991,-0.082 4.523,-0.11c0.009,3.101 0.009,6.184 0.009,9.294Z" style="fill:#252122;fill-rule:nonzero;"/><path d="M111.652,17.459c-0.725,0 -1.404,0 -2.147,0c0,-0.129 0,-0.248 0,-0.367c0,-1.652 0.018,-3.303 -0.009,-4.954c-0.01,-0.532 -0.083,-1.074 -0.202,-1.597c-0.138,-0.605 -0.532,-1.009 -1.202,-1.027c-0.596,-0.019 -1.184,0 -1.807,0c0,2.642 0,5.275 0,7.926c-0.734,0 -1.441,0 -2.175,0c0,-3.064 0,-6.137 0,-9.247c0.101,-0.01 0.193,-0.019 0.294,-0.019c1.11,0 2.22,-0.027 3.339,0.009c0.542,0.019 1.101,0.074 1.624,0.221c1.257,0.367 1.881,1.312 2.129,2.532c0.091,0.468 0.146,0.954 0.156,1.431c0.009,1.688 0,3.376 0,5.092Z" style="fill:#252122;fill-rule:nonzero;"/><path d="M94.734,12.752c0.083,-0.596 0.129,-1.284 0.275,-1.945c0.331,-1.486 1.367,-2.385 2.881,-2.559c0.661,-0.074 1.321,-0.074 1.982,0.055c1.284,0.247 2.165,0.981 2.523,2.229c0.44,1.523 0.44,3.074 0,4.606c-0.34,1.183 -1.138,1.926 -2.349,2.201c-0.954,0.211 -1.908,0.211 -2.853,-0.055c-1.349,-0.385 -2.028,-1.376 -2.266,-2.697c-0.092,-0.578 -0.129,-1.156 -0.193,-1.835Zm5.844,0.092c-0.027,0 -0.046,-0.009 -0.073,-0.009c0,-0.174 0,-0.34 0,-0.514c-0.009,-0.642 -0.055,-1.275 -0.285,-1.89c-0.146,-0.403 -0.403,-0.715 -0.835,-0.844c-0.422,-0.119 -0.853,-0.128 -1.284,-0.009c-0.615,0.165 -0.862,0.651 -0.972,1.211c-0.276,1.367 -0.266,2.752 0,4.119c0.082,0.404 0.256,0.789 0.633,1.028c0.945,0.624 2.266,0.165 2.523,-0.927c0.174,-0.697 0.201,-1.44 0.293,-2.165Z" style="fill:#252122;fill-rule:nonzero;"/><path d="M68.422,5.284c0,0.459 0,0.872 0,1.312l-2.899,0c-0.899,0.01 -1.413,0.45 -1.504,1.349c-0.037,0.349 -0.037,0.706 0,1.055c0.1,0.826 0.55,1.229 1.376,1.294c0.477,0.036 0.954,0.064 1.431,0.137c1,0.147 1.66,0.734 1.991,1.67c0.422,1.174 0.431,2.376 0.027,3.56c-0.385,1.128 -1.248,1.724 -2.403,1.779c-1.34,0.065 -2.679,0.019 -4.056,0.019c0,-0.422 0,-0.835 0,-1.285c0.083,-0.009 0.184,-0.018 0.285,-0.018c0.844,0 1.697,0 2.541,0c1.074,0 1.569,-0.395 1.716,-1.459c0.064,-0.477 0.027,-0.991 -0.064,-1.468c-0.138,-0.734 -0.624,-1.091 -1.386,-1.137c-0.413,-0.028 -0.825,-0.028 -1.229,-0.12c-1.202,-0.256 -1.945,-1.009 -2.239,-2.192c-0.257,-1.055 -0.192,-2.092 0.358,-3.055c0.45,-0.798 1.174,-1.257 2.064,-1.367c0.67,-0.083 1.349,-0.074 2.019,-0.083c0.669,0 1.312,0.009 1.972,0.009Z" style="fill:#252122;fill-rule:nonzero;"/><path d="M74.606,16.183c0,0.423 0,0.835 0,1.248c-0.67,0 -1.34,0.092 -1.982,-0.018c-1.064,-0.184 -1.615,-0.954 -1.844,-1.973c-0.064,-0.275 -0.073,-0.568 -0.083,-0.853c-0.009,-2.523 0,-5.046 0,-7.559c0,-0.12 0,-0.248 0,-0.386c0.734,0 1.422,0 2.156,0c0,0.505 0,1.009 0,1.532c0.789,0 1.542,0 2.303,0c0,0.45 0,0.863 0,1.321c-0.752,0 -1.504,0 -2.275,0c-0.009,0.129 -0.018,0.23 -0.018,0.331c0,1.715 0,3.44 0,5.156c0,0.174 0.018,0.339 0.045,0.513c0.083,0.459 0.34,0.661 0.808,0.67c0.275,0 0.55,0 0.825,0.009c0.019,-0.009 0.028,0 0.065,0.009Z" style="fill:#252122;fill-rule:nonzero;"/><path d="M85.404,6.642c0.734,0 1.422,0 2.137,0c0,0.496 0,1 0,1.532c0.799,0 1.551,0 2.331,0c0,0.459 0,0.872 0,1.321c-0.762,0 -1.514,0 -2.285,0c-0.009,0.129 -0.018,0.221 -0.018,0.322c0,1.743 0,3.486 0,5.229c0,0.165 0.018,0.339 0.064,0.504c0.11,0.441 0.321,0.606 0.78,0.606c0.275,0 0.55,0 0.826,0.009c0.009,0 0.018,0.009 0.055,0.037c0,0.404 0,0.816 0,1.238c-0.652,0 -1.312,0.074 -1.945,-0.018c-1.028,-0.147 -1.789,-1.092 -1.899,-2.193c-0.019,-0.174 -0.028,-0.339 -0.028,-0.513c0,-2.606 0,-5.202 0,-7.808c-0.018,-0.073 -0.018,-0.156 -0.018,-0.266Z" style="fill:#252122;fill-rule:nonzero;"/><rect x="39.954" y="5.294" width="2.101" height="12.156" style="fill:#252122;fill-rule:nonzero;"/><rect x="91.23" y="8.211" width="2.092" height="9.248" style="fill:#252122;fill-rule:nonzero;"/><path d="M13.725,13.321c1.771,-0.761 3.615,-1.055 5.523,-0.899c1.248,0.101 2.459,0.376 3.596,0.917c0.175,0.083 0.34,0.193 0.496,0.312c0.495,0.395 0.513,0.945 0.045,1.386c-0.394,0.376 -0.871,0.614 -1.394,0.77c-0.046,-0.027 -0.101,-0.055 -0.147,-0.073c-0.624,-0.184 -1.248,-0.358 -1.871,-0.551c-0.321,-0.1 -0.633,-0.22 -0.945,-0.33c0.385,-0.147 0.77,-0.284 1.156,-0.44c0.183,-0.074 0.357,-0.165 0.376,-0.413c-0.156,-0.257 -0.431,-0.284 -0.688,-0.312c-0.633,-0.055 -1.257,-0.009 -1.863,0.22c-0.385,0.147 -0.779,0.266 -1.165,0.395c-0.046,-0.046 -0.092,-0.11 -0.147,-0.129c-0.284,-0.082 -0.568,-0.146 -0.853,-0.229c-0.706,-0.202 -1.413,-0.413 -2.119,-0.624Z" style="fill:#346cb0;fill-rule:nonzero;"/><path d="M10.064,15.642c0,0.321 0,0.652 0,0.973c-1.027,0.183 -2.055,0.302 -3.101,0.275c-1.403,-0.046 -2.77,-0.275 -4.064,-0.853c-0.192,-0.083 -0.376,-0.211 -0.55,-0.34c-0.523,-0.403 -0.541,-1.027 0,-1.413c0.403,-0.293 0.871,-0.495 1.303,-0.734c0.11,0.046 0.229,0.111 0.348,0.147c0.881,0.285 1.752,0.569 2.633,0.853c-0.385,0.156 -0.77,0.294 -1.137,0.459c-0.129,0.055 -0.211,0.202 -0.358,0.367c0.229,0.101 0.376,0.202 0.532,0.239c0.715,0.156 1.404,0.055 2.092,-0.175c0.302,-0.101 0.605,-0.174 0.908,-0.266c0.468,0.156 0.936,0.312 1.394,0.468Z" style="fill:#eac008;fill-rule:nonzero;"/><path d="M19.028,14.853c0.312,0.11 0.624,0.239 0.945,0.33c0.623,0.193 1.247,0.367 1.871,0.551c0.055,0.018 0.101,0.046 0.147,0.073c-0.982,0.358 -1.963,0.725 -2.954,1.083c-0.697,0.257 -1.395,0.495 -2.092,0.743c-0.128,0.046 -0.257,0.073 -0.394,0.11c-0.23,-0.082 -0.468,-0.165 -0.698,-0.248c-0.734,-0.229 -1.468,-0.458 -2.211,-0.688c0,-0.027 0,-0.064 0,-0.091c0.661,-0.23 1.321,-0.45 1.973,-0.679c1.147,-0.386 2.275,-0.789 3.413,-1.184Z" style="fill:#08a899;fill-rule:nonzero;"/><path d="M6.633,14.55c-0.881,-0.284 -1.761,-0.568 -2.633,-0.853c-0.119,-0.036 -0.229,-0.101 -0.348,-0.147c1.66,-0.587 3.311,-1.174 4.972,-1.77c0.477,0.147 0.963,0.303 1.44,0.449c0,0.377 0,0.743 0,1.12c-0.119,0.036 -0.238,0.064 -0.357,0.101c-1.019,0.367 -2.046,0.733 -3.074,1.1Z" style="fill:#08a899;fill-rule:nonzero;"/><rect x="91.239" y="5.294" width="2.092" height="1.789" style="fill:#252122;fill-rule:nonzero;"/><path d="M13.725,13.321c0.706,0.211 1.413,0.422 2.11,0.624c0.284,0.083 0.569,0.147 0.853,0.229c0.055,0.019 0.101,0.083 0.147,0.129c-0.211,0.082 -0.422,0.165 -0.633,0.238c-0.844,0.294 -1.697,0.587 -2.541,0.881c0,-0.706 0,-1.413 -0.009,-2.11c0.027,0.009 0.055,0.009 0.073,0.009Z" style="fill:#08a899;fill-rule:nonzero;"/><path d="M13.652,16.826c0.733,0.229 1.467,0.449 2.211,0.688c0.238,0.073 0.467,0.165 0.697,0.247c-0.964,0.349 -1.936,0.698 -2.899,1.037c0,-0.66 -0.009,-1.321 -0.009,-1.972Z" style="fill:#eac008;fill-rule:nonzero;"/><path d="M113.853,19.615c-0.578,-0.009 -1.036,-0.468 -1.036,-1.046c0,-0.606 0.458,-1.055 1.073,-1.046c0.578,0.009 1.028,0.468 1.018,1.064c0,0.569 -0.477,1.028 -1.055,1.028Zm0.652,-0.505c0.293,-0.312 0.275,-0.835 -0.046,-1.147c-0.33,-0.321 -0.844,-0.33 -1.174,-0.018c-0.349,0.321 -0.367,0.853 -0.046,1.202c0.284,0.312 0.835,0.358 1.146,0.092l0.12,-0.129Z" style="fill:#252122;fill-rule:nonzero;"/><path d="M10.064,12.229c-0.477,-0.146 -0.963,-0.302 -1.44,-0.449c0.486,-0.174 0.963,-0.349 1.45,-0.523c-0.01,0.33 -0.01,0.651 -0.01,0.972Z" style="fill:#346cb0;fill-rule:nonzero;"/><path d="M8.67,15.174c0.284,-0.119 0.569,-0.247 0.853,-0.357c0.174,-0.074 0.358,-0.129 0.541,-0.184c0,0.339 0,0.679 0,1.018c-0.458,-0.165 -0.926,-0.321 -1.394,-0.477Z" style="fill:#08a899;fill-rule:nonzero;"/><path d="M114.413,19.101c-0.083,0.009 -0.174,0.018 -0.275,0.027c-0.019,-0.156 -0.028,-0.275 -0.037,-0.44c-0.147,-0.009 -0.284,-0.027 -0.449,-0.037c-0.01,0.166 -0.028,0.294 -0.037,0.45c-0.055,0.009 -0.119,0.018 -0.202,0.027c0,-0.394 0,-0.77 0,-1.137c0.495,-0.083 0.633,-0.064 0.872,0.101c0.009,0.091 0.045,0.275 0,0.385c-0.028,0.064 -0.184,0.083 -0.129,0.092c0.257,0.027 0.22,0.348 0.248,0.541l0.009,-0.009Zm-0.771,-0.67c0.432,0.055 0.532,0.074 0.468,-0.202c-0.018,-0.101 -0.302,-0.036 -0.468,-0.036c0,0.064 0,0.146 0,0.238Z" style="fill:#252122;fill-rule:nonzero;"/></g></g></svg>