<?xml version="1.0" encoding="UTF-8" standalone="no"?><!DOCTYPE svg PUBLIC "-//W3C//DTD SVG 1.1//EN" "http://www.w3.org/Graphics/SVG/1.1/DTD/svg11.dtd"><svg width="100%" height="100%" viewBox="0 0 96 24" version="1.1" xmlns="http://www.w3.org/2000/svg" xmlns:xlink="http://www.w3.org/1999/xlink" xml:space="preserve" xmlns:serif="http://www.serif.com/" style="fill-rule:evenodd;clip-rule:evenodd;stroke-linejoin:round;stroke-miterlimit:1.41421;"><g><g><path d="M87.599,5.5c0.897,0 1.625,0.728 1.625,1.625l0,9.75c0,0.897 -0.728,1.625 -1.625,1.625l-17.024,0c-0.897,0 -1.625,-0.728 -1.625,-1.625l0,-9.75c0,-0.897 0.728,-1.625 1.625,-1.625l17.024,0Zm-6.578,6.964c0,-1.238 1.145,-2.244 2.554,-2.244c1.409,0 2.554,1.006 2.554,2.244c0,0 0,0.774 0,0.774c0,1.239 -1.145,2.244 -2.554,2.244c-1.409,0 -2.554,-1.005 -2.554,-2.244l0,-0.774Zm-1.702,2.863l0,-2.476c0,-1.854 1.548,-1.625 1.548,-1.625l0.077,-1.006c-0.901,-0.081 -1.387,0.223 -1.625,0.665l0,-0.51l-1.315,0l0,4.952l1.315,0Zm-4.179,-2.476l0.014,0c1.19,-0.006 2.153,-0.819 2.153,-1.818l0,-0.619c0,-1 -0.963,-1.812 -2.153,-1.819l-0.014,0l-2.863,0l0,6.732l1.393,0l0,-2.476l1.47,0Zm8.435,-1.625c0.683,0 1.238,0.728 1.238,1.625c0,0.897 -0.555,1.625 -1.238,1.625c-0.683,0 -1.238,-0.728 -1.238,-1.625c0,-0.897 0.555,-1.625 1.238,-1.625Zm-8.551,-1.547l0.006,0c0.446,0.003 0.807,0.452 0.807,1.006c0,0.555 -0.364,1.005 -0.813,1.005l-1.354,0l0,-2.011l1.354,0Z"/><path d="M65.767,18.485l-0.391,-1.182l0,1.182l-0.197,0l0,-1.455l0.271,0l0.422,1.242l0.408,-1.242l0.271,0l0,1.455l-0.197,0l0,-1.182l-0.392,1.182l-0.195,0Z" style="fill-rule:nonzero;"/><path d="M64.335,17.197l-0.466,0l0,-0.167l1.129,0l0,0.167l-0.466,0l0,1.288l-0.197,0l0,-1.288Z" style="fill-rule:nonzero;"/><path d="M62.406,15.712l-2.682,0l0.09,0c-0.044,0 -0.09,-0.046 -0.09,-0.091l0,-8.742c0,-1.334 -0.921,-1.773 -2.23,-0.985l-15.584,9.621c-0.603,0.379 -0.814,0.803 -0.663,1.121c0.12,0.273 0.466,0.47 1.145,0.47l14.469,0c0.044,0 0.074,0.03 0.074,0.061l0,1.227c0,0.06 0.046,0.091 0.09,0.091l2.608,0c0.046,0 0.091,-0.031 0.091,-0.091l0,-1.197c0,-0.046 0.046,-0.091 0.09,-0.091l2.592,0c0.06,0 0.09,-0.046 0.09,-0.091l0,-1.212c0,-0.046 -0.03,-0.091 -0.09,-0.091Zm-5.455,-0.091c0,0.046 -0.046,0.091 -0.09,0.091l-12.134,0c-0.105,0 -0.151,-0.03 -0.165,-0.061c-0.016,-0.06 0.014,-0.106 0.09,-0.151l12.072,-7.47c0.076,-0.061 0.227,-0.045 0.227,0.121l0,7.47Z" style="fill-rule:nonzero;"/><path d="M42.346,5.5l-8.455,0.015c-2.456,0 -3.647,1.5 -3.647,3.47l0,6.015c0,1.227 -0.589,2.106 -1.794,2.106l-7.957,0c-0.046,0 -0.091,0.03 -0.091,0.091l0,1.197c0,0.061 0.045,0.106 0.091,0.106l8.861,0c2.457,0 3.663,-1.53 3.663,-3.5l0,-6.015c0,-1.227 0.572,-2.106 1.794,-2.106l7.535,0c0.046,0 0.09,-0.046 0.09,-0.091l0,-1.197c0,-0.046 -0.044,-0.091 -0.09,-0.091Z" style="fill-rule:nonzero;"/><path d="M17.373,5.515l-15.282,0c-0.061,0 -0.091,0.03 -0.091,0.076l0,1.197c0,0.06 0.03,0.091 0.091,0.091l14.362,0c1.221,0 1.794,0.879 1.794,2.106c0,1.227 -0.573,2.106 -1.794,2.106l-11.363,0c-1.764,0 -3.09,1.5 -3.09,3.47l0,3.833c0,0.061 0.03,0.106 0.091,0.106l2.592,0c0.045,0 0.09,-0.046 0.09,-0.106l0,-3.834c0,-1.227 0.693,-2.075 1.703,-2.075l10.897,0c2.456,0 3.647,-1.515 3.647,-3.5c0,-1.97 -1.191,-3.47 -3.647,-3.47Z" style="fill-rule:nonzero;"/></g></g></svg>