<?xml version="1.0" encoding="UTF-8" standalone="no"?><!DOCTYPE svg PUBLIC "-//W3C//DTD SVG 1.1//EN" "http://www.w3.org/Graphics/SVG/1.1/DTD/svg11.dtd"><svg width="100%" height="100%" viewBox="0 0 72 72" version="1.1" xmlns="http://www.w3.org/2000/svg" xmlns:xlink="http://www.w3.org/1999/xlink" xml:space="preserve" style="fill-rule:evenodd;clip-rule:evenodd;stroke-linejoin:round;stroke-miterlimit:1.41421;"><g><g><g><circle cx="21.12" cy="58.022" r="2.278" style="fill:#414042;"/><path d="M22.158,58.247c-0.185,0.407 -0.591,0.67 -1.038,0.67c-0.447,0 -0.853,-0.263 -1.038,-0.67c-0.601,-1.332 -1.24,-2.747 -1.24,-2.747l4.556,0c0,0 -0.639,1.415 -1.24,2.747Z" style="fill:#abbac3;"/></g><g><circle cx="48" cy="58.022" r="2.278" style="fill:#414042;"/><path d="M49.038,58.247c-0.185,0.407 -0.591,0.67 -1.038,0.67c-0.447,0 -0.853,-0.263 -1.038,-0.67c-0.601,-1.332 -1.24,-2.747 -1.24,-2.747l4.556,0c0,0 -0.639,1.415 -1.24,2.747Z" style="fill:#abbac3;"/></g></g><g><g><circle cx="26.88" cy="56.582" r="2.278" style="fill:#414042;"/><path d="M27.918,56.807c-0.185,0.407 -0.591,0.67 -1.038,0.67c-0.447,0 -0.853,-0.263 -1.038,-0.67c-0.601,-1.332 -1.24,-2.747 -1.24,-2.747l4.556,0c0,0 -0.639,1.415 -1.24,2.747Z" style="fill:#abbac3;"/></g><g><circle cx="42.24" cy="56.582" r="2.278" style="fill:#414042;"/><path d="M43.278,56.807c-0.185,0.407 -0.591,0.67 -1.038,0.67c-0.447,0 -0.853,-0.263 -1.038,-0.67c-0.601,-1.332 -1.24,-2.747 -1.24,-2.747l4.556,0c0,0 -0.639,1.415 -1.24,2.747Z" style="fill:#abbac3;"/></g></g></g><g><path d="M58.56,54c0,1.656 -10.754,3 -24,3c-13.246,0 -24,-1.344 -24,-3l0,-2.64l48,0l0,2.64Z" style="fill:#b7a276;"/><ellipse cx="34.56" cy="51.36" rx="24" ry="3" style="fill:#dbcaa4;"/><path d="M46.68,51.36c0,0.662 -5.431,1.2 -12.12,1.2c-6.689,0 -12.12,-0.538 -12.12,-1.2l0,-31.2l24.24,0l0,31.2Z" style="fill:url(#_Linear1);"/><path d="M46.68,51.36c0,0.662 -5.431,1.2 -12.12,1.2c-6.689,0 -12.12,-0.538 -12.12,-1.2l0,-4.8l24.24,0l0,4.8Z" style="fill:url(#_Linear2);"/><path d="M46.68,25.389c-3.558,0.261 -7.7,0.411 -12.12,0.411c-4.42,0 -8.562,-0.15 -12.12,-0.411l0,-5.229l24.24,0l0,5.229Z" style="fill-opacity:0.101961;"/><path d="M58.56,20.4c0,1.656 -10.754,3 -24,3c-13.246,0 -24,-1.344 -24,-3l0,-2.64l48,0l0,2.64Z" style="fill:#b7a276;"/><ellipse cx="34.56" cy="17.76" rx="24" ry="3" style="fill:#dbcaa4;"/></g><g><path d="M10.56,15.11c0.042,-1.651 10.78,-2.99 24,-2.99c13.246,0 24,1.344 24,3l0,2.64c0,1.656 -10.754,3 -24,3c-13.246,0 -24,-1.344 -24,-3l0,-2.64l0,-0.01Z" style="fill:#4893c1;fill-opacity:0.486275;"/><ellipse cx="34.56" cy="15.12" rx="24" ry="3" style="fill:#d1e2e8;fill-opacity:0.364706;"/></g><defs><linearGradient id="_Linear1" x1="0" y1="0" x2="1" y2="0" gradientUnits="userSpaceOnUse" gradientTransform="matrix(1.91045e-15,31.2,-31.2,1.91045e-15,34.56,21.36)"><stop offset="0" style="stop-color:#dbcaa4;stop-opacity:1"/><stop offset="1" style="stop-color:#b7a276;stop-opacity:1"/></linearGradient><linearGradient id="_Linear2" x1="0" y1="0" x2="1" y2="0" gradientUnits="userSpaceOnUse" gradientTransform="matrix(3.47813e-16,-5.68022,5.68022,3.47813e-16,33.8232,52.5577)"><stop offset="0" style="stop-color:#000;stop-opacity:0.101961"/><stop offset="1" style="stop-color:#000;stop-opacity:0"/></linearGradient></defs></svg>